<?xml version="1.0" encoding="UTF-8" standalone="no"?>
<!-- Created with Inkscape (http://www.inkscape.org/) -->

<svg
   xmlns:dc="http://purl.org/dc/elements/1.1/"
   xmlns:cc="http://creativecommons.org/ns#"
   xmlns:rdf="http://www.w3.org/1999/02/22-rdf-syntax-ns#"
   xmlns:svg="http://www.w3.org/2000/svg"
   xmlns="http://www.w3.org/2000/svg"
   xmlns:xlink="http://www.w3.org/1999/xlink"
   xmlns:sodipodi="http://sodipodi.sourceforge.net/DTD/sodipodi-0.dtd"
   xmlns:inkscape="http://www.inkscape.org/namespaces/inkscape"
   width="1052.3622"
   height="744.09448"
   id="svg3996"
   version="1.1"
   inkscape:version="0.48.2 r9819"
   sodipodi:docname="logo_official.svg">
  <defs
     id="defs3998">
    <linearGradient
       id="linearGradient4169"
       inkscape:collect="always">
      <stop
         id="stop4171"
         offset="0"
         style="stop-color:#babdb6;stop-opacity:1" />
      <stop
         id="stop4173"
         offset="1"
         style="stop-color:#888a85;stop-opacity:0;" />
    </linearGradient>
    <linearGradient
       inkscape:collect="always"
       id="linearGradient3062">
      <stop
         style="stop-color:#888a85;stop-opacity:1;"
         offset="0"
         id="stop3064" />
      <stop
         style="stop-color:#2e3436;stop-opacity:1"
         offset="1"
         id="stop3066" />
    </linearGradient>
    <linearGradient
       inkscape:collect="always"
       id="linearGradient3046">
      <stop
         style="stop-color:#888a85;stop-opacity:1;"
         offset="0"
         id="stop3048" />
      <stop
         style="stop-color:#888a85;stop-opacity:0;"
         offset="1"
         id="stop3050" />
    </linearGradient>
    <linearGradient
       inkscape:collect="always"
       xlink:href="#linearGradient3062"
       id="linearGradient4138"
       gradientUnits="userSpaceOnUse"
       gradientTransform="matrix(1.2345336,0,0,1.2635576,-203.14435,-460.47618)"
       x1="232.5"
       y1="876.38007"
       x2="232.14285"
       y2="919.68359" />
    <linearGradient
       inkscape:collect="always"
       xlink:href="#linearGradient3046"
       id="linearGradient4140"
       gradientUnits="userSpaceOnUse"
       gradientTransform="matrix(1.2345336,0,0,1.2345336,-203.14435,-435.31794)"
       x1="271.78574"
       y1="871.29077"
       x2="271.60715"
       y2="902.36218" />
    <linearGradient
       inkscape:collect="always"
       xlink:href="#linearGradient4169"
       id="linearGradient4153"
       gradientUnits="userSpaceOnUse"
       gradientTransform="matrix(1.2512003,0,0,1.2345336,-183.21866,16.716507)"
       x1="271.78574"
       y1="871.29077"
       x2="271.89645"
       y2="897.87811" />
  </defs>
  <sodipodi:namedview
     id="base"
     pagecolor="#ffffff"
     bordercolor="#666666"
     borderopacity="1.0"
     inkscape:pageopacity="0.0"
     inkscape:pageshadow="2"
     inkscape:zoom="0.35"
     inkscape:cx="-1028.3668"
     inkscape:cy="1022.4444"
     inkscape:document-units="px"
     inkscape:current-layer="layer1"
     showgrid="false"
     showguides="true"
     inkscape:guide-bbox="true"
     inkscape:window-width="1920"
     inkscape:window-height="1028"
     inkscape:window-x="-8"
     inkscape:window-y="-8"
     inkscape:window-maximized="1" />
  <metadata
     id="metadata4001">
    <rdf:RDF>
      <cc:Work
         rdf:about="">
        <dc:format>image/svg+xml</dc:format>
        <dc:type
           rdf:resource="http://purl.org/dc/dcmitype/StillImage" />
        <dc:title></dc:title>
      </cc:Work>
    </rdf:RDF>
  </metadata>
  <g
     inkscape:label="Layer 1"
     inkscape:groupmode="layer"
     id="layer1"
     transform="translate(0,-308.2677)">
    <rect
       style="fill:#ce5c00;fill-opacity:1;stroke:none;opacity:0"
       id="rect4368"
       width="889.85291"
       height="190.21426"
       x="80.81221"
       y="368.39957"
       ry="3.9042335"
       inkscape:export-filename="C:\wamp\www\registra_requerimento\images\logodark.png"
       inkscape:export-xdpi="41.164108"
       inkscape:export-ydpi="41.164108" />
    <rect
       ry="0"
       y="1106.4718"
       x="155.44215"
       height="47.60743"
       width="64.413383"
       id="rect4163"
       style="fill:#babdb6;fill-opacity:1;stroke:none" />
    <rect
       style="opacity:0;fill:#d3d7cf;fill-opacity:1;stroke:none"
       id="rect3111"
       width="905.55676"
       height="189.94223"
       x="92.445702"
       y="1013.6581"
       ry="0.73916596"
       inkscape:export-filename="C:\wamp\www\registra_requerimento\images\logodarkn.png"
       inkscape:export-xdpi="40.450253"
       inkscape:export-ydpi="40.450253" />
    <text
       xml:space="preserve"
       style="font-size:142.72883606px;font-style:normal;font-weight:normal;line-height:125%;letter-spacing:0px;word-spacing:0px;fill:#888a85;fill-opacity:1;stroke:none;font-family:Sans"
       x="233.52147"
       y="1153.4771"
       id="text3003"
       sodipodi:linespacing="125%"
       inkscape:export-filename="C:\wamp\www\registra_requerimento\images\logodarkn.png"
       inkscape:export-xdpi="40.450253"
       inkscape:export-ydpi="40.450253"><tspan
         sodipodi:role="line"
         id="tspan3005"
         x="233.52147"
         y="1153.4771"
         style="font-style:normal;font-variant:normal;font-weight:bold;font-stretch:normal;fill:#888a85;font-family:Xolonium;-inkscape-font-specification:Xolonium">Urban</tspan></text>
    <text
       sodipodi:linespacing="125%"
       id="text3007"
       y="1153.8357"
       x="761.02496"
       style="font-size:67.75804901px;font-style:normal;font-weight:normal;line-height:125%;letter-spacing:0px;word-spacing:0px;fill:#888a85;fill-opacity:1;stroke:none;font-family:Sans"
       xml:space="preserve"
       inkscape:export-filename="C:\wamp\www\registra_requerimento\images\logodarkn.png"
       inkscape:export-xdpi="40.450253"
       inkscape:export-ydpi="40.450253"><tspan
         style="font-style:normal;font-variant:normal;font-weight:bold;font-stretch:normal;fill:#888a85;font-family:Xolonium;-inkscape-font-specification:Xolonium"
         y="1153.8357"
         x="761.02496"
         id="tspan3009"
         sodipodi:role="line">admin</tspan></text>
    <rect
       style="fill:#babdb6;fill-opacity:1;stroke:none"
       id="rect3042"
       width="64.413383"
       height="105.82172"
       x="155.44214"
       y="1048.2574"
       ry="5.8391609" />
    <path
       style="fill:#babdb6;fill-opacity:1;stroke:none"
       d="m 112.61247,1081.3695 c -3.22281,0 -5.8125,2.6209 -5.8125,5.8437 l 0,61.0625 c 0,3.2228 2.58969,5.8125 5.8125,5.8125 l 44.15625,0 c 3.22281,0 5.84375,-2.5897 5.84375,-5.8125 l 0,-61.0625 c 0,-3.2228 -2.62094,-5.8437 -5.84375,-5.8437 l -44.15625,0 z m 4.28125,12.5625 13.8125,0 c 0.39114,0 0.6875,0.3276 0.6875,0.7187 l 0,8.8438 c 0,0.3911 -0.29636,0.7187 -0.6875,0.7187 l -13.8125,0 c -0.39114,0 -0.71875,-0.3276 -0.71875,-0.7187 l 0,-8.8438 c 0,-0.3911 0.32761,-0.7187 0.71875,-0.7187 z m 20,0 13.8125,0 c 0.39114,0 0.6875,0.3276 0.6875,0.7187 l 0,8.8438 c 0,0.3911 -0.29636,0.7187 -0.6875,0.7187 l -13.8125,0 c -0.39114,0 -0.71875,-0.3276 -0.71875,-0.7187 l 0,-8.8438 c 0,-0.3911 0.32761,-0.7187 0.71875,-0.7187 z m -20,20 13.8125,0 c 0.39114,0 0.6875,0.3276 0.6875,0.7187 l 0,8.8438 c 0,0.3911 -0.29636,0.7187 -0.6875,0.7187 l -13.8125,0 c -0.39114,0 -0.71875,-0.3276 -0.71875,-0.7187 l 0,-8.8438 c 0,-0.3911 0.32761,-0.7187 0.71875,-0.7187 z m 20,0 13.8125,0 c 0.39114,0 0.6875,0.3276 0.6875,0.7187 l 0,8.8438 c 0,0.3911 -0.29636,0.7187 -0.6875,0.7187 l -13.8125,0 c -0.39114,0 -0.71875,-0.3276 -0.71875,-0.7187 l 0,-8.8438 c 0,-0.3911 0.32761,-0.7187 0.71875,-0.7187 z"
       id="rect3040"
       inkscape:connector-curvature="0" />
    <path
       style="fill:#babdb6;fill-opacity:1;stroke:none"
       d="m 106.79997,1094.7757 0,59.3125 55.8125,0 0,-59.3125 -11.21875,0 0,8.7188 c 0,0.3911 -0.29636,0.7187 -0.6875,0.7187 l -13.8125,0 c -0.39114,0 -0.71875,-0.3276 -0.71875,-0.7187 l 0,-8.7188 -4.78125,0 0,8.7188 c 0,0.3911 -0.29636,0.7187 -0.6875,0.7187 l -13.8125,0 c -0.39114,0 -0.71875,-0.3276 -0.71875,-0.7187 l 0,-8.7188 -9.375,0 z m 10.09375,19.1563 13.8125,0 c 0.39114,0 0.6875,0.3276 0.6875,0.7187 l 0,8.8438 c 0,0.3911 -0.29636,0.7187 -0.6875,0.7187 l -13.8125,0 c -0.39114,0 -0.71875,-0.3276 -0.71875,-0.7187 l 0,-8.8438 c 0,-0.3911 0.32761,-0.7187 0.71875,-0.7187 z m 20,0 13.8125,0 c 0.39114,0 0.6875,0.3276 0.6875,0.7187 l 0,8.8438 c 0,0.3911 -0.29636,0.7187 -0.6875,0.7187 l -13.8125,0 c -0.39114,0 -0.71875,-0.3276 -0.71875,-0.7187 l 0,-8.8438 c 0,-0.3911 0.32761,-0.7187 0.71875,-0.7187 z"
       id="rect4165"
       inkscape:connector-curvature="0" />
    <path
       style="fill:#888a85;fill-opacity:1;stroke:none"
       d="m 114.89372,1083.7445 c -3.11784,0 -5.625,2.5071 -5.625,5.625 l 0,59.0937 c 0,3.1179 2.50716,5.625 5.625,5.625 l 52.03125,0 c 3.11784,0 5.625,-2.5071 5.625,-5.625 l 0,-59.0937 c 0,-3.1179 -2.50716,-5.625 -5.625,-5.625 l -52.03125,0 z m 2,10.1875 13.8125,0 c 0.39114,0 0.6875,0.3276 0.6875,0.7187 l 0,8.8438 c 0,0.3911 -0.29636,0.7187 -0.6875,0.7187 l -13.8125,0 c -0.39114,0 -0.71875,-0.3276 -0.71875,-0.7187 l 0,-8.8438 c 0,-0.3911 0.32761,-0.7187 0.71875,-0.7187 z m 20,0 13.8125,0 c 0.39114,0 0.6875,0.3276 0.6875,0.7187 l 0,8.8438 c 0,0.3911 -0.29636,0.7187 -0.6875,0.7187 l -13.8125,0 c -0.39114,0 -0.71875,-0.3276 -0.71875,-0.7187 l 0,-8.8438 c 0,-0.3911 0.32761,-0.7187 0.71875,-0.7187 z m -20,20 13.8125,0 c 0.39114,0 0.6875,0.3276 0.6875,0.7187 l 0,8.8438 c 0,0.3911 -0.29636,0.7187 -0.6875,0.7187 l -13.8125,0 c -0.39114,0 -0.71875,-0.3276 -0.71875,-0.7187 l 0,-8.8438 c 0,-0.3911 0.32761,-0.7187 0.71875,-0.7187 z m 20,0 13.8125,0 c 0.39114,0 0.6875,0.3276 0.6875,0.7187 l 0,8.8438 c 0,0.3911 -0.29636,0.7187 -0.6875,0.7187 l -13.8125,0 c -0.39114,0 -0.71875,-0.3276 -0.71875,-0.7187 l 0,-8.8438 c 0,-0.3911 0.32761,-0.7187 0.71875,-0.7187 z"
       id="rect3036"
       inkscape:connector-curvature="0" />
    <path
       style="fill:#888a85;fill-opacity:1;stroke:none"
       d="m 163.64372,1050.2132 c -3.1754,0 -5.71875,2.5434 -5.71875,5.7188 l 0,92.4062 c 0,3.1754 2.54335,5.75 5.71875,5.75 l 48.09375,0 c 3.1754,0 5.75,-2.5746 5.75,-5.75 l 0,-92.4062 c 0,-3.1754 -2.5746,-5.7188 -5.75,-5.7188 l -48.09375,0 z m 2.03125,12.6875 17.75,0 c 0.50334,0 0.9375,0.4029 0.9375,0.9063 l 0,11.4062 c 0,0.5034 -0.43416,0.9063 -0.9375,0.9063 l -17.75,0 c -0.50334,0 -0.90625,-0.4029 -0.90625,-0.9063 l 0,-11.4062 c 0,-0.5034 0.40291,-0.9063 0.90625,-0.9063 z m 25.75,0 17.75,0 c 0.50334,0 0.90625,0.4029 0.90625,0.9063 l 0,11.4062 c 0,0.5034 -0.40291,0.9063 -0.90625,0.9063 l -17.75,0 c -0.50334,0 -0.90625,-0.4029 -0.90625,-0.9063 l 0,-11.4062 c 0,-0.5034 0.40291,-0.9063 0.90625,-0.9063 z m -25.625,19.9063 17.78125,0 c 0.50334,0 0.90625,0.4029 0.90625,0.9062 l 0,11.4063 c 0,0.5033 -0.40291,0.9062 -0.90625,0.9062 l -17.78125,0 c -0.50334,0 -0.90625,-0.4029 -0.90625,-0.9062 l 0,-11.4063 c 0,-0.5033 0.40291,-0.9062 0.90625,-0.9062 z m 25.75,0 17.75,0 c 0.50334,0 0.90625,0.4029 0.90625,0.9062 l 0,11.4063 c 0,0.5033 -0.40291,0.9062 -0.90625,0.9062 l -17.75,0 c -0.50334,0 -0.90625,-0.4029 -0.90625,-0.9062 l 0,-11.4063 c 0,-0.5033 0.40291,-0.9062 0.90625,-0.9062 z m -25.75,20 17.78125,0 c 0.50334,0 0.90625,0.4029 0.90625,0.9062 l 0,11.4063 c 0,0.5033 -0.40291,0.9062 -0.90625,0.9062 l -17.78125,0 c -0.50334,0 -0.90625,-0.4029 -0.90625,-0.9062 l 0,-11.4063 c 0,-0.5033 0.40291,-0.9062 0.90625,-0.9062 z m 25.75,0 17.75,0 c 0.50334,0 0.90625,0.4029 0.90625,0.9062 l 0,11.4063 c 0,0.5033 -0.40291,0.9062 -0.90625,0.9062 l -17.75,0 c -0.50334,0 -0.90625,-0.4029 -0.90625,-0.9062 l 0,-11.4063 c 0,-0.5033 0.40291,-0.9062 0.90625,-0.9062 z"
       id="rect3038"
       inkscape:connector-curvature="0" />
    <rect
       ry="0.70603484"
       y="1093.9434"
       x="-24.728357"
       height="10.270122"
       width="15.214993"
       id="rect3070"
       style="fill:#d3d7cf;fill-opacity:1;stroke:none" />
    <rect
       style="fill:#d3d7cf;fill-opacity:1;stroke:none"
       id="rect3072"
       width="15.214993"
       height="10.270122"
       x="-4.7283578"
       y="1093.9434"
       ry="0.70603484" />
    <rect
       style="fill:#d3d7cf;fill-opacity:1;stroke:none"
       id="rect3086"
       width="15.214993"
       height="10.270122"
       x="-24.728357"
       y="1113.9434"
       ry="0.70603484" />
    <rect
       ry="0.70603484"
       y="1113.9434"
       x="-4.7283578"
       height="10.270122"
       width="15.214993"
       id="rect3088"
       style="fill:#d3d7cf;fill-opacity:1;stroke:none" />
    <g
       inkscape:export-ydpi="40.450253"
       inkscape:export-xdpi="40.450253"
       inkscape:export-filename="C:\wamp\www\registra_requerimento\images\logodarkn.png"
       transform="translate(-272.54662,371.75765)"
       id="g4106">
      <rect
         style="fill:#888a85;fill-opacity:1;stroke:none"
         id="rect4108"
         width="60.814713"
         height="103.87537"
         x="131.00391"
         y="601.23602"
         ry="5.7317634" />
      <rect
         ry="5.76019"
         y="634.78448"
         x="82.366608"
         height="71.980247"
         width="55.795952"
         id="rect4110"
         style="fill:url(#linearGradient4138);fill-opacity:1;stroke:none" />
      <rect
         style="fill:#2e3436;fill-opacity:1;stroke:none"
         id="rect4112"
         width="63.278358"
         height="70.326859"
         x="84.835678"
         y="637.2536"
         ry="5.6278782" />
      <rect
         ry="5.7317634"
         y="603.70508"
         x="133.47298"
         height="103.87537"
         width="59.567646"
         id="rect4114"
         style="fill:#2e3436;fill-opacity:1;stroke:none" />
      <rect
         style="fill:url(#linearGradient4140);fill-opacity:1;stroke:none"
         id="rect4116"
         width="2.3382514"
         height="52.7883"
         x="131.10864"
         y="623.83704"
         ry="1.6316383" />
      <rect
         ry="0.70603484"
         y="647.44464"
         x="90.833412"
         height="10.270122"
         width="15.214993"
         id="rect4118"
         style="fill:#d3d7cf;fill-opacity:1;stroke:none" />
      <rect
         style="fill:#d3d7cf;fill-opacity:1;stroke:none"
         id="rect4120"
         width="15.214993"
         height="10.270122"
         x="110.83341"
         y="647.44464"
         ry="0.70603484" />
      <rect
         style="fill:#d3d7cf;fill-opacity:1;stroke:none"
         id="rect4122"
         width="19.579458"
         height="13.216137"
         x="140.33089"
         y="614.4043"
         ry="0.90856302" />
      <rect
         ry="0.90856302"
         y="614.4043"
         x="166.06795"
         height="13.216137"
         width="19.579458"
         id="rect4124"
         style="fill:#d3d7cf;fill-opacity:1;stroke:none" />
      <rect
         ry="0.90856302"
         y="634.4043"
         x="140.33089"
         height="13.216137"
         width="19.579458"
         id="rect4126"
         style="fill:#d3d7cf;fill-opacity:1;stroke:none" />
      <rect
         style="fill:#d3d7cf;fill-opacity:1;stroke:none"
         id="rect4128"
         width="19.579458"
         height="13.216137"
         x="166.06795"
         y="634.4043"
         ry="0.90856302" />
      <rect
         style="fill:#d3d7cf;fill-opacity:1;stroke:none"
         id="rect4130"
         width="19.579458"
         height="13.216137"
         x="140.33089"
         y="654.4043"
         ry="0.90856302" />
      <rect
         ry="0.90856302"
         y="654.4043"
         x="166.06795"
         height="13.216137"
         width="19.579458"
         id="rect4132"
         style="fill:#d3d7cf;fill-opacity:1;stroke:none" />
      <rect
         style="fill:#d3d7cf;fill-opacity:1;stroke:none"
         id="rect4134"
         width="15.214993"
         height="10.270122"
         x="90.833412"
         y="667.44464"
         ry="0.70603484" />
      <rect
         ry="0.70603484"
         y="667.44464"
         x="110.83341"
         height="10.270122"
         width="15.214993"
         id="rect4136"
         style="fill:#d3d7cf;fill-opacity:1;stroke:none" />
    </g>
    <rect
       style="fill:#888a85;fill-opacity:1;stroke:none"
       id="rect4161"
       width="59.567646"
       height="23.063162"
       x="157.91121"
       y="1131.016"
       ry="0" />
    <path
       style="fill:#888a85;fill-opacity:1;stroke:none"
       d="m 109.26872,1094.6507 0,59.4375 63.28125,0 0,-59.4375 -21.15625,0 0,8.8438 c 0,0.3911 -0.29636,0.7187 -0.6875,0.7187 l -13.8125,0 c -0.39114,0 -0.71875,-0.3276 -0.71875,-0.7187 l 0,-8.8438 -4.78125,0 0,8.8438 c 0,0.3911 -0.29636,0.7187 -0.6875,0.7187 l -13.8125,0 c -0.39114,0 -0.71875,-0.3276 -0.71875,-0.7187 l 0,-8.8438 -6.90625,0 z m 7.625,19.2813 13.8125,0 c 0.39114,0 0.6875,0.3276 0.6875,0.7187 l 0,8.8438 c 0,0.3911 -0.29636,0.7187 -0.6875,0.7187 l -13.8125,0 c -0.39114,0 -0.71875,-0.3276 -0.71875,-0.7187 l 0,-8.8438 c 0,-0.3911 0.32761,-0.7187 0.71875,-0.7187 z m 20,0 13.8125,0 c 0.39114,0 0.6875,0.3276 0.6875,0.7187 l 0,8.8438 c 0,0.3911 -0.29636,0.7187 -0.6875,0.7187 l -13.8125,0 c -0.39114,0 -0.71875,-0.3276 -0.71875,-0.7187 l 0,-8.8438 c 0,-0.195 0.0898,-0.3708 0.21875,-0.5 0.0651,-0.065 0.13251,-0.1192 0.21875,-0.1562 0.0857,-0.037 0.18347,-0.062 0.28125,-0.062 z"
       id="rect4167"
       inkscape:connector-curvature="0" />
    <rect
       style="fill:url(#linearGradient4153);fill-opacity:1;stroke:none"
       id="rect3044"
       width="2.3698187"
       height="52.7883"
       x="155.54688"
       y="1075.8715"
       ry="1.6316383" />
    <rect
       ry="0.70603484"
       y="1093.9434"
       x="56.187916"
       height="10.270122"
       width="15.214993"
       id="rect4191"
       style="fill:#d3d7cf;fill-opacity:1;stroke:none" />
    <rect
       style="fill:#d3d7cf;fill-opacity:1;stroke:none"
       id="rect4193"
       width="15.214993"
       height="10.270122"
       x="76.187912"
       y="1093.9434"
       ry="0.70603484" />
    <rect
       style="fill:#d3d7cf;fill-opacity:1;stroke:none"
       id="rect4195"
       width="15.214993"
       height="10.270122"
       x="56.187916"
       y="1113.9434"
       ry="0.70603484" />
    <rect
       ry="0.70603484"
       y="1113.9434"
       x="76.187912"
       height="10.270122"
       width="15.214993"
       id="rect4197"
       style="fill:#d3d7cf;fill-opacity:1;stroke:none" />
    <path
       style="fill:#babdb6;fill-opacity:1;stroke:none"
       d="m 227.39372,1251.0882 c -1.99664,0 -3.625,1.9878 -3.625,4.4688 l 0,27.3437 -41.125,0 c -2.42459,0 -4.375,1.8656 -4.375,4.1875 l 0,18.6563 0,44.9375 0,4.1875 4.375,0 41.125,0 3.15625,0 0.46875,0 3.90625,0 55.28125,0 3.625,0 0,-4.4688 0,-64.3125 0,-30.5312 c 0,-2.481 -1.62835,-4.4688 -3.625,-4.4688 l -59.1875,0 z m 8.53125,11.4688 17.6875,0 c 0.98929,0 1.78125,0.7919 1.78125,1.7812 l 0,10 c 0,0.9893 -0.79196,1.7813 -1.78125,1.7813 l -17.6875,0 c -0.98929,0 -1.78125,-0.792 -1.78125,-1.7813 l 0,-10 c 0,-0.9893 0.79196,-1.7812 1.78125,-1.7812 z m 26,0 17.6875,0 c 0.98929,0 1.78125,0.7919 1.78125,1.7812 l 0,10 c 0,0.9893 -0.79196,1.7813 -1.78125,1.7813 l -17.6875,0 c -0.98929,0 -1.78125,-0.792 -1.78125,-1.7813 l 0,-10 c 0,-0.9893 0.79196,-1.7812 1.78125,-1.7812 z m -26,20 17.6875,0 c 0.98929,0 1.78125,0.7919 1.78125,1.7812 l 0,10 c 0,0.9893 -0.79196,1.7813 -1.78125,1.7813 l -17.6875,0 c -0.98929,0 -1.78125,-0.792 -1.78125,-1.7813 l 0,-10 c 0,-0.9893 0.79196,-1.7812 1.78125,-1.7812 z m 26,0 17.6875,0 c 0.98929,0 1.78125,0.7919 1.78125,1.7812 l 0,10 c 0,0.9893 -0.79196,1.7813 -1.78125,1.7813 l -17.6875,0 c -0.98929,0 -1.78125,-0.792 -1.78125,-1.7813 l 0,-10 c 0,-0.9893 0.79196,-1.7812 1.78125,-1.7812 z m -76,12 15,0 c 0.98929,0 1.8125,0.7919 1.8125,1.7812 l 0,10 c 0,0.9893 -0.82321,1.7813 -1.8125,1.7813 l -15,0 c -0.98929,0 -1.78125,-0.792 -1.78125,-1.7813 l 0,-10 c 0,-0.9893 0.79196,-1.7812 1.78125,-1.7812 z m 22,0 15,0 c 0.98929,0 1.8125,0.7919 1.8125,1.7812 l 0,10 c 0,0.9893 -0.82321,1.7813 -1.8125,1.7813 l -15,0 c -0.98929,0 -1.78125,-0.792 -1.78125,-1.7813 l 0,-10 c 0,-0.9893 0.79196,-1.7812 1.78125,-1.7812 z m 28,8 17.6875,0 c 0.98929,0 1.78125,0.7919 1.78125,1.7812 l 0,10 c 0,0.9893 -0.79196,1.7813 -1.78125,1.7813 l -17.6875,0 c -0.98929,0 -1.78125,-0.792 -1.78125,-1.7813 l 0,-10 c 0,-0.9893 0.79196,-1.7812 1.78125,-1.7812 z m 26,0 17.6875,0 c 0.98929,0 1.78125,0.7919 1.78125,1.7812 l 0,10 c 0,0.9893 -0.79196,1.7813 -1.78125,1.7813 l -17.6875,0 c -0.98929,0 -1.78125,-0.792 -1.78125,-1.7813 l 0,-10 c 0,-0.9893 0.79196,-1.7812 1.78125,-1.7812 z m -76,12 15,0 c 0.98929,0 1.8125,0.7919 1.8125,1.7812 l 0,10 c 0,0.9893 -0.82321,1.7813 -1.8125,1.7813 l -15,0 c -0.98929,0 -1.78125,-0.792 -1.78125,-1.7813 l 0,-10 c 0,-0.9893 0.79196,-1.7812 1.78125,-1.7812 z m 22,0 15,0 c 0.98929,0 1.8125,0.7919 1.8125,1.7812 l 0,10 c 0,0.9893 -0.82321,1.7813 -1.8125,1.7813 l -15,0 c -0.98929,0 -1.78125,-0.792 -1.78125,-1.7813 l 0,-10 c 0,-0.9893 0.79196,-1.7812 1.78125,-1.7812 z"
       id="rect4251"
       inkscape:connector-curvature="0" />
    <path
       style="fill:#888a85;fill-opacity:1;stroke:none"
       d="m 229.29997,1253.4945 c -1.86757,0 -3.375,1.9519 -3.375,4.375 l 0,20.125 0,7.4375 -41.28125,0 c -2.34401,0 -4.21875,1.7908 -4.21875,4.0312 l 0,14.6563 0,46.7187 0,4.0313 4.21875,0 41.28125,0 1.53125,0 1.84375,0 2.40625,0 52.96875,0 3.375,0 0,-4.375 0,-72.5 0,-20.125 c 0,-2.4231 -1.50742,-4.375 -3.375,-4.375 l -55.375,0 z m 6.625,9.0625 17.6875,0 c 0.98929,0 1.78125,0.7919 1.78125,1.7812 l 0,10 c 0,0.9893 -0.79196,1.7813 -1.78125,1.7813 l -17.6875,0 c -0.98929,0 -1.78125,-0.792 -1.78125,-1.7813 l 0,-10 c 0,-0.9893 0.79196,-1.7812 1.78125,-1.7812 z m 26,0 17.6875,0 c 0.98929,0 1.78125,0.7919 1.78125,1.7812 l 0,10 c 0,0.9893 -0.79196,1.7813 -1.78125,1.7813 l -17.6875,0 c -0.98929,0 -1.78125,-0.792 -1.78125,-1.7813 l 0,-10 c 0,-0.9893 0.79196,-1.7812 1.78125,-1.7812 z m -26,20 17.6875,0 c 0.98929,0 1.78125,0.7919 1.78125,1.7812 l 0,10 c 0,0.9893 -0.79196,1.7813 -1.78125,1.7813 l -17.6875,0 c -0.98929,0 -1.78125,-0.792 -1.78125,-1.7813 l 0,-10 c 0,-0.9893 0.79196,-1.7812 1.78125,-1.7812 z m 26,0 17.6875,0 c 0.98929,0 1.78125,0.7919 1.78125,1.7812 l 0,10 c 0,0.9893 -0.79196,1.7813 -1.78125,1.7813 l -17.6875,0 c -0.98929,0 -1.78125,-0.792 -1.78125,-1.7813 l 0,-10 c 0,-0.9893 0.79196,-1.7812 1.78125,-1.7812 z m -76,12 15,0 c 0.98929,0 1.8125,0.7919 1.8125,1.7812 l 0,10 c 0,0.9893 -0.82321,1.7813 -1.8125,1.7813 l -15,0 c -0.98929,0 -1.78125,-0.792 -1.78125,-1.7813 l 0,-10 c 0,-0.9893 0.79196,-1.7812 1.78125,-1.7812 z m 22,0 15,0 c 0.98929,0 1.8125,0.7919 1.8125,1.7812 l 0,10 c 0,0.9893 -0.82321,1.7813 -1.8125,1.7813 l -15,0 c -0.98929,0 -1.78125,-0.792 -1.78125,-1.7813 l 0,-10 c 0,-0.9893 0.79196,-1.7812 1.78125,-1.7812 z m 28,8 17.6875,0 c 0.98929,0 1.78125,0.7919 1.78125,1.7812 l 0,10 c 0,0.9893 -0.79196,1.7813 -1.78125,1.7813 l -17.6875,0 c -0.98929,0 -1.78125,-0.792 -1.78125,-1.7813 l 0,-10 c 0,-0.9893 0.79196,-1.7812 1.78125,-1.7812 z m 26,0 17.6875,0 c 0.98929,0 1.78125,0.7919 1.78125,1.7812 l 0,10 c 0,0.9893 -0.79196,1.7813 -1.78125,1.7813 l -17.6875,0 c -0.98929,0 -1.78125,-0.792 -1.78125,-1.7813 l 0,-10 c 0,-0.9893 0.79196,-1.7812 1.78125,-1.7812 z m -76,12 15,0 c 0.98929,0 1.8125,0.7919 1.8125,1.7812 l 0,10 c 0,0.9893 -0.82321,1.7813 -1.8125,1.7813 l -15,0 c -0.98929,0 -1.78125,-0.792 -1.78125,-1.7813 l 0,-10 c 0,-0.9893 0.79196,-1.7812 1.78125,-1.7812 z m 22,0 15,0 c 0.98929,0 1.8125,0.7919 1.8125,1.7812 l 0,10 c 0,0.9893 -0.82321,1.7813 -1.8125,1.7813 l -15,0 c -0.98929,0 -1.78125,-0.792 -1.78125,-1.7813 l 0,-10 c 0,-0.9893 0.79196,-1.7812 1.78125,-1.7812 z"
       id="rect4259"
       inkscape:connector-curvature="0" />
    <rect
       rx="4.3765106"
       ry="4.1911645"
       y="1286.9397"
       x="612.36438"
       height="71.973366"
       width="53.033009"
       id="rect4270"
       style="fill:#babdb6;fill-opacity:1;stroke:none" />
    <rect
       rx="3.6040518"
       style="fill:#babdb6;fill-opacity:1;stroke:none"
       id="rect4272"
       width="66.417526"
       height="103.79318"
       x="657.86188"
       y="1255.1199"
       ry="4.4782386" />
    <path
       id="path4274"
       d="m 758.85594,1289.4726 c -2.34401,0 -4.21875,1.7908 -4.21875,4.0312 l 0,14.6563 0,46.7187 0,4.0313 4.21875,0 42.8125,0 4.25,0 0,-4.0313 0,-46.7187 0,-14.6563 c 0,-2.2404 -1.90599,-4.0312 -4.25,-4.0312 l -42.8125,0 z"
       style="fill:#888a85;fill-opacity:1;stroke:none"
       inkscape:connector-curvature="0" />
    <path
       id="path4276"
       d="m 803.51219,1257.5351 c -1.86758,0 -3.375,1.9519 -3.375,4.375 l 0,20.125 0,72.5 0,4.375 3.375,0 55.375,0 3.375,0 0,-4.375 0,-72.5 0,-20.125 c 0,-2.4231 -1.50742,-4.375 -3.375,-4.375 l -55.375,0 z"
       style="fill:#888a85;fill-opacity:1;stroke:none"
       inkscape:connector-curvature="0" />
    <rect
       ry="1.7857143"
       y="1294.5577"
       x="44.15266"
       height="13.571428"
       width="18.571428"
       id="rect4312"
       style="fill:#ce5c00;fill-opacity:1;stroke:none" />
    <rect
       style="fill:#ce5c00;fill-opacity:1;stroke:none"
       id="rect4314"
       width="18.571428"
       height="13.571428"
       x="66.152664"
       y="1294.5577"
       ry="1.7857143" />
    <rect
       style="fill:#ce5c00;fill-opacity:1;stroke:none"
       id="rect4316"
       width="18.571428"
       height="13.571428"
       x="44.15266"
       y="1314.5577"
       ry="1.7857143" />
    <rect
       ry="1.7857143"
       y="1314.5577"
       x="66.152664"
       height="13.571428"
       width="18.571428"
       id="rect4318"
       style="fill:#ce5c00;fill-opacity:1;stroke:none" />
    <rect
       ry="1.7857143"
       y="1262.5577"
       x="120.15266"
       height="13.571428"
       width="21.25"
       id="rect4320"
       style="fill:#ce5c00;fill-opacity:1;stroke:none" />
    <rect
       style="fill:#ce5c00;fill-opacity:1;stroke:none"
       id="rect4322"
       width="21.25"
       height="13.571428"
       x="120.15266"
       y="1282.5577"
       ry="1.7857143" />
    <rect
       style="fill:#ce5c00;fill-opacity:1;stroke:none"
       id="rect4324"
       width="21.25"
       height="13.571428"
       x="94.152664"
       y="1262.5577"
       ry="1.7857143" />
    <rect
       ry="1.7857143"
       y="1282.5577"
       x="94.152664"
       height="13.571428"
       width="21.25"
       id="rect4326"
       style="fill:#ce5c00;fill-opacity:1;stroke:none" />
    <rect
       ry="1.7857143"
       y="1302.5577"
       x="120.15266"
       height="13.571428"
       width="21.25"
       id="rect4328"
       style="fill:#ce5c00;fill-opacity:1;stroke:none" />
    <rect
       style="fill:#ce5c00;fill-opacity:1;stroke:none"
       id="rect4330"
       width="21.25"
       height="13.571428"
       x="94.152664"
       y="1302.5577"
       ry="1.7857143" />
    <path
       id="path4356"
       d="m 137.49014,404.5804 c -1.99664,0 -3.625,1.98781 -3.625,4.46875 l 0,27.34375 -41.124996,0 c -2.42459,0 -4.375,1.86559 -4.375,4.1875 l 0,18.65625 0,44.9375 0,4.1875 4.375,0 41.124996,0 3.15625,0 0.46875,0 3.90625,0 55.28125,0 3.625,0 0,-4.46875 0,-64.3125 0,-30.53125 c 0,-2.48094 -1.62835,-4.46875 -3.625,-4.46875 l -59.1875,0 z m 8.53125,11.46875 17.6875,0 c 0.98929,0 1.78125,0.79196 1.78125,1.78125 l 0,10 c 0,0.98929 -0.79196,1.78125 -1.78125,1.78125 l -17.6875,0 c -0.98929,0 -1.78125,-0.79196 -1.78125,-1.78125 l 0,-10 c 0,-0.98929 0.79196,-1.78125 1.78125,-1.78125 z m 26,0 17.6875,0 c 0.98929,0 1.78125,0.79196 1.78125,1.78125 l 0,10 c 0,0.98929 -0.79196,1.78125 -1.78125,1.78125 l -17.6875,0 c -0.98929,0 -1.78125,-0.79196 -1.78125,-1.78125 l 0,-10 c 0,-0.98929 0.79196,-1.78125 1.78125,-1.78125 z m -26,20 17.6875,0 c 0.98929,0 1.78125,0.79196 1.78125,1.78125 l 0,10 c 0,0.98929 -0.79196,1.78125 -1.78125,1.78125 l -17.6875,0 c -0.98929,0 -1.78125,-0.79196 -1.78125,-1.78125 l 0,-10 c 0,-0.98929 0.79196,-1.78125 1.78125,-1.78125 z m 26,0 17.6875,0 c 0.98929,0 1.78125,0.79196 1.78125,1.78125 l 0,10 c 0,0.98929 -0.79196,1.78125 -1.78125,1.78125 l -17.6875,0 c -0.98929,0 -1.78125,-0.79196 -1.78125,-1.78125 l 0,-10 c 0,-0.98929 0.79196,-1.78125 1.78125,-1.78125 z m -75.999996,12 14.999996,0 c 0.98929,0 1.8125,0.79196 1.8125,1.78125 l 0,10 c 0,0.98929 -0.82321,1.78125 -1.8125,1.78125 l -14.999996,0 c -0.98929,0 -1.78125,-0.79196 -1.78125,-1.78125 l 0,-10 c 0,-0.98929 0.79196,-1.78125 1.78125,-1.78125 z m 21.999996,0 15,0 c 0.98929,0 1.8125,0.79196 1.8125,1.78125 l 0,10 c 0,0.98929 -0.82321,1.78125 -1.8125,1.78125 l -15,0 c -0.98929,0 -1.78125,-0.79196 -1.78125,-1.78125 l 0,-10 c 0,-0.98929 0.79196,-1.78125 1.78125,-1.78125 z m 28,8 17.6875,0 c 0.98929,0 1.78125,0.79196 1.78125,1.78125 l 0,10 c 0,0.98929 -0.79196,1.78125 -1.78125,1.78125 l -17.6875,0 c -0.98929,0 -1.78125,-0.79196 -1.78125,-1.78125 l 0,-10 c 0,-0.98929 0.79196,-1.78125 1.78125,-1.78125 z m 26,0 17.6875,0 c 0.98929,0 1.78125,0.79196 1.78125,1.78125 l 0,10 c 0,0.98929 -0.79196,1.78125 -1.78125,1.78125 l -17.6875,0 c -0.98929,0 -1.78125,-0.79196 -1.78125,-1.78125 l 0,-10 c 0,-0.98929 0.79196,-1.78125 1.78125,-1.78125 z m -75.999996,12 14.999996,0 c 0.98929,0 1.8125,0.79196 1.8125,1.78125 l 0,10 c 0,0.98929 -0.82321,1.78125 -1.8125,1.78125 l -14.999996,0 c -0.98929,0 -1.78125,-0.79196 -1.78125,-1.78125 l 0,-10 c 0,-0.98929 0.79196,-1.78125 1.78125,-1.78125 z m 21.999996,0 15,0 c 0.98929,0 1.8125,0.79196 1.8125,1.78125 l 0,10 c 0,0.98929 -0.82321,1.78125 -1.8125,1.78125 l -15,0 c -0.98929,0 -1.78125,-0.79196 -1.78125,-1.78125 l 0,-10 c 0,-0.98929 0.79196,-1.78125 1.78125,-1.78125 z"
       style="fill:#babdb6;fill-opacity:1;stroke:none"
       inkscape:connector-curvature="0"
       inkscape:export-filename="C:\wamp\www\registra_requerimento\images\logodark.png"
       inkscape:export-xdpi="41.164108"
       inkscape:export-ydpi="41.164108" />
    <path
       id="path4358"
       d="m 139.39639,406.98665 c -1.86757,0 -3.375,1.95189 -3.375,4.375 l 0,20.125 0,7.4375 -41.281246,0 c -2.34401,0 -4.21875,1.79082 -4.21875,4.03125 l 0,14.65625 0,46.71875 0,4.03125 4.21875,0 41.281246,0 1.53125,0 1.84375,0 2.40625,0 52.96875,0 3.375,0 0,-4.375 0,-72.5 0,-20.125 c 0,-2.42311 -1.50742,-4.375 -3.375,-4.375 l -55.375,0 z m 6.625,9.0625 17.6875,0 c 0.98929,0 1.78125,0.79196 1.78125,1.78125 l 0,10 c 0,0.98929 -0.79196,1.78125 -1.78125,1.78125 l -17.6875,0 c -0.98929,0 -1.78125,-0.79196 -1.78125,-1.78125 l 0,-10 c 0,-0.98929 0.79196,-1.78125 1.78125,-1.78125 z m 26,0 17.6875,0 c 0.98929,0 1.78125,0.79196 1.78125,1.78125 l 0,10 c 0,0.98929 -0.79196,1.78125 -1.78125,1.78125 l -17.6875,0 c -0.98929,0 -1.78125,-0.79196 -1.78125,-1.78125 l 0,-10 c 0,-0.98929 0.79196,-1.78125 1.78125,-1.78125 z m -26,20 17.6875,0 c 0.98929,0 1.78125,0.79196 1.78125,1.78125 l 0,10 c 0,0.98929 -0.79196,1.78125 -1.78125,1.78125 l -17.6875,0 c -0.98929,0 -1.78125,-0.79196 -1.78125,-1.78125 l 0,-10 c 0,-0.98929 0.79196,-1.78125 1.78125,-1.78125 z m 26,0 17.6875,0 c 0.98929,0 1.78125,0.79196 1.78125,1.78125 l 0,10 c 0,0.98929 -0.79196,1.78125 -1.78125,1.78125 l -17.6875,0 c -0.98929,0 -1.78125,-0.79196 -1.78125,-1.78125 l 0,-10 c 0,-0.98929 0.79196,-1.78125 1.78125,-1.78125 z m -75.999996,12 14.999996,0 c 0.98929,0 1.8125,0.79196 1.8125,1.78125 l 0,10 c 0,0.98929 -0.82321,1.78125 -1.8125,1.78125 l -14.999996,0 c -0.98929,0 -1.78125,-0.79196 -1.78125,-1.78125 l 0,-10 c 0,-0.98929 0.79196,-1.78125 1.78125,-1.78125 z m 21.999996,0 15,0 c 0.98929,0 1.8125,0.79196 1.8125,1.78125 l 0,10 c 0,0.98929 -0.82321,1.78125 -1.8125,1.78125 l -15,0 c -0.98929,0 -1.78125,-0.79196 -1.78125,-1.78125 l 0,-10 c 0,-0.98929 0.79196,-1.78125 1.78125,-1.78125 z m 28,8 17.6875,0 c 0.98929,0 1.78125,0.79196 1.78125,1.78125 l 0,10 c 0,0.98929 -0.79196,1.78125 -1.78125,1.78125 l -17.6875,0 c -0.98929,0 -1.78125,-0.79196 -1.78125,-1.78125 l 0,-10 c 0,-0.98929 0.79196,-1.78125 1.78125,-1.78125 z m 26,0 17.6875,0 c 0.98929,0 1.78125,0.79196 1.78125,1.78125 l 0,10 c 0,0.98929 -0.79196,1.78125 -1.78125,1.78125 l -17.6875,0 c -0.98929,0 -1.78125,-0.79196 -1.78125,-1.78125 l 0,-10 c 0,-0.98929 0.79196,-1.78125 1.78125,-1.78125 z m -75.999996,12 14.999996,0 c 0.98929,0 1.8125,0.79196 1.8125,1.78125 l 0,10 c 0,0.98929 -0.82321,1.78125 -1.8125,1.78125 l -14.999996,0 c -0.98929,0 -1.78125,-0.79196 -1.78125,-1.78125 l 0,-10 c 0,-0.98929 0.79196,-1.78125 1.78125,-1.78125 z m 21.999996,0 15,0 c 0.98929,0 1.8125,0.79196 1.8125,1.78125 l 0,10 c 0,0.98929 -0.82321,1.78125 -1.8125,1.78125 l -15,0 c -0.98929,0 -1.78125,-0.79196 -1.78125,-1.78125 l 0,-10 c 0,-0.98929 0.79196,-1.78125 1.78125,-1.78125 z"
       style="fill:#888a85;fill-opacity:1;stroke:none"
       inkscape:connector-curvature="0"
       inkscape:export-filename="C:\wamp\www\registra_requerimento\images\logodark.png"
       inkscape:export-xdpi="41.164108"
       inkscape:export-ydpi="41.164108" />
    <text
       inkscape:export-ydpi="41.164108"
       inkscape:export-xdpi="41.164108"
       inkscape:export-filename="C:\wamp\www\registra_requerimento\images\logodark.png"
       sodipodi:linespacing="125%"
       id="text4360"
       y="507.75952"
       x="206.20676"
       style="font-size:142.72883606px;font-style:normal;font-weight:normal;line-height:125%;letter-spacing:0px;word-spacing:0px;fill:#888a85;fill-opacity:1;stroke:none;font-family:Sans"
       xml:space="preserve"><tspan
         style="font-style:normal;font-variant:normal;font-weight:bold;font-stretch:normal;fill:#888a85;font-family:Xolonium;-inkscape-font-specification:Xolonium"
         y="507.75952"
         x="206.20676"
         id="tspan4362"
         sodipodi:role="line">Urban</tspan></text>
    <text
       inkscape:export-ydpi="41.164108"
       inkscape:export-xdpi="41.164108"
       inkscape:export-filename="C:\wamp\www\registra_requerimento\images\logodark.png"
       xml:space="preserve"
       style="font-size:67.75804901px;font-style:normal;font-weight:normal;line-height:125%;letter-spacing:0px;word-spacing:0px;fill:#888a85;fill-opacity:1;stroke:none;font-family:Sans"
       x="727.71021"
       y="508.11816"
       id="text4364"
       sodipodi:linespacing="125%"><tspan
         sodipodi:role="line"
         id="tspan4366"
         x="727.71021"
         y="508.11816"
         style="font-style:normal;font-variant:normal;font-weight:bold;font-stretch:normal;fill:#888a85;font-family:Xolonium;-inkscape-font-specification:Xolonium">admin</tspan></text>
    <rect
       inkscape:export-ydpi="20.345478"
       inkscape:export-xdpi="20.345478"
       inkscape:export-filename="C:\wamp\www\registra_requerimento\images\logo.png"
       ry="3.9042335"
       y="602.39954"
       x="80.81221"
       height="190.21426"
       width="889.85291"
       id="rect4370"
       style="opacity:0;fill:#ce5c00;fill-opacity:1;stroke:none" />
    <path
       inkscape:export-ydpi="20.345478"
       inkscape:export-xdpi="20.345478"
       inkscape:export-filename="C:\wamp\www\registra_requerimento\images\logo.png"
       inkscape:connector-curvature="0"
       style="fill:#eeeeec;fill-opacity:1;stroke:none"
       d="m 137.49014,638.5804 c -1.99664,0 -3.625,1.98781 -3.625,4.46875 l 0,27.34375 -41.124996,0 c -2.42459,0 -4.375,1.86559 -4.375,4.1875 l 0,18.65625 0,44.9375 0,4.1875 4.375,0 41.124996,0 3.15625,0 0.46875,0 3.90625,0 55.28125,0 3.625,0 0,-4.46875 0,-64.3125 0,-30.53125 c 0,-2.48094 -1.62835,-4.46875 -3.625,-4.46875 l -59.1875,0 z m 8.53125,11.46875 17.6875,0 c 0.98929,0 1.78125,0.79196 1.78125,1.78125 l 0,10 c 0,0.98929 -0.79196,1.78125 -1.78125,1.78125 l -17.6875,0 c -0.98929,0 -1.78125,-0.79196 -1.78125,-1.78125 l 0,-10 c 0,-0.98929 0.79196,-1.78125 1.78125,-1.78125 z m 26,0 17.6875,0 c 0.98929,0 1.78125,0.79196 1.78125,1.78125 l 0,10 c 0,0.98929 -0.79196,1.78125 -1.78125,1.78125 l -17.6875,0 c -0.98929,0 -1.78125,-0.79196 -1.78125,-1.78125 l 0,-10 c 0,-0.98929 0.79196,-1.78125 1.78125,-1.78125 z m -26,20 17.6875,0 c 0.98929,0 1.78125,0.79196 1.78125,1.78125 l 0,10 c 0,0.98929 -0.79196,1.78125 -1.78125,1.78125 l -17.6875,0 c -0.98929,0 -1.78125,-0.79196 -1.78125,-1.78125 l 0,-10 c 0,-0.98929 0.79196,-1.78125 1.78125,-1.78125 z m 26,0 17.6875,0 c 0.98929,0 1.78125,0.79196 1.78125,1.78125 l 0,10 c 0,0.98929 -0.79196,1.78125 -1.78125,1.78125 l -17.6875,0 c -0.98929,0 -1.78125,-0.79196 -1.78125,-1.78125 l 0,-10 c 0,-0.98929 0.79196,-1.78125 1.78125,-1.78125 z m -75.999996,12 14.999996,0 c 0.98929,0 1.8125,0.79196 1.8125,1.78125 l 0,10 c 0,0.98929 -0.82321,1.78125 -1.8125,1.78125 l -14.999996,0 c -0.98929,0 -1.78125,-0.79196 -1.78125,-1.78125 l 0,-10 c 0,-0.98929 0.79196,-1.78125 1.78125,-1.78125 z m 21.999996,0 15,0 c 0.98929,0 1.8125,0.79196 1.8125,1.78125 l 0,10 c 0,0.98929 -0.82321,1.78125 -1.8125,1.78125 l -15,0 c -0.98929,0 -1.78125,-0.79196 -1.78125,-1.78125 l 0,-10 c 0,-0.98929 0.79196,-1.78125 1.78125,-1.78125 z m 28,8 17.6875,0 c 0.98929,0 1.78125,0.79196 1.78125,1.78125 l 0,10 c 0,0.98929 -0.79196,1.78125 -1.78125,1.78125 l -17.6875,0 c -0.98929,0 -1.78125,-0.79196 -1.78125,-1.78125 l 0,-10 c 0,-0.98929 0.79196,-1.78125 1.78125,-1.78125 z m 26,0 17.6875,0 c 0.98929,0 1.78125,0.79196 1.78125,1.78125 l 0,10 c 0,0.98929 -0.79196,1.78125 -1.78125,1.78125 l -17.6875,0 c -0.98929,0 -1.78125,-0.79196 -1.78125,-1.78125 l 0,-10 c 0,-0.98929 0.79196,-1.78125 1.78125,-1.78125 z m -75.999996,12 14.999996,0 c 0.98929,0 1.8125,0.79196 1.8125,1.78125 l 0,10 c 0,0.98929 -0.82321,1.78125 -1.8125,1.78125 l -14.999996,0 c -0.98929,0 -1.78125,-0.79196 -1.78125,-1.78125 l 0,-10 c 0,-0.98929 0.79196,-1.78125 1.78125,-1.78125 z m 21.999996,0 15,0 c 0.98929,0 1.8125,0.79196 1.8125,1.78125 l 0,10 c 0,0.98929 -0.82321,1.78125 -1.8125,1.78125 l -15,0 c -0.98929,0 -1.78125,-0.79196 -1.78125,-1.78125 l 0,-10 c 0,-0.98929 0.79196,-1.78125 1.78125,-1.78125 z"
       id="path4372" />
    <path
       inkscape:export-ydpi="20.345478"
       inkscape:export-xdpi="20.345478"
       inkscape:export-filename="C:\wamp\www\registra_requerimento\images\logo.png"
       inkscape:connector-curvature="0"
       style="fill:#d3d7cf;fill-opacity:1;stroke:none"
       d="m 139.39639,640.98665 c -1.86757,0 -3.375,1.95189 -3.375,4.375 l 0,20.125 0,7.4375 -41.281246,0 c -2.34401,0 -4.21875,1.79082 -4.21875,4.03125 l 0,14.65625 0,46.71875 0,4.03125 4.21875,0 41.281246,0 1.53125,0 1.84375,0 2.40625,0 52.96875,0 3.375,0 0,-4.375 0,-72.5 0,-20.125 c 0,-2.42311 -1.50742,-4.375 -3.375,-4.375 l -55.375,0 z m 6.625,9.0625 17.6875,0 c 0.98929,0 1.78125,0.79196 1.78125,1.78125 l 0,10 c 0,0.98929 -0.79196,1.78125 -1.78125,1.78125 l -17.6875,0 c -0.98929,0 -1.78125,-0.79196 -1.78125,-1.78125 l 0,-10 c 0,-0.98929 0.79196,-1.78125 1.78125,-1.78125 z m 26,0 17.6875,0 c 0.98929,0 1.78125,0.79196 1.78125,1.78125 l 0,10 c 0,0.98929 -0.79196,1.78125 -1.78125,1.78125 l -17.6875,0 c -0.98929,0 -1.78125,-0.79196 -1.78125,-1.78125 l 0,-10 c 0,-0.98929 0.79196,-1.78125 1.78125,-1.78125 z m -26,20 17.6875,0 c 0.98929,0 1.78125,0.79196 1.78125,1.78125 l 0,10 c 0,0.98929 -0.79196,1.78125 -1.78125,1.78125 l -17.6875,0 c -0.98929,0 -1.78125,-0.79196 -1.78125,-1.78125 l 0,-10 c 0,-0.98929 0.79196,-1.78125 1.78125,-1.78125 z m 26,0 17.6875,0 c 0.98929,0 1.78125,0.79196 1.78125,1.78125 l 0,10 c 0,0.98929 -0.79196,1.78125 -1.78125,1.78125 l -17.6875,0 c -0.98929,0 -1.78125,-0.79196 -1.78125,-1.78125 l 0,-10 c 0,-0.98929 0.79196,-1.78125 1.78125,-1.78125 z m -75.999996,12 14.999996,0 c 0.98929,0 1.8125,0.79196 1.8125,1.78125 l 0,10 c 0,0.98929 -0.82321,1.78125 -1.8125,1.78125 l -14.999996,0 c -0.98929,0 -1.78125,-0.79196 -1.78125,-1.78125 l 0,-10 c 0,-0.98929 0.79196,-1.78125 1.78125,-1.78125 z m 21.999996,0 15,0 c 0.98929,0 1.8125,0.79196 1.8125,1.78125 l 0,10 c 0,0.98929 -0.82321,1.78125 -1.8125,1.78125 l -15,0 c -0.98929,0 -1.78125,-0.79196 -1.78125,-1.78125 l 0,-10 c 0,-0.98929 0.79196,-1.78125 1.78125,-1.78125 z m 28,8 17.6875,0 c 0.98929,0 1.78125,0.79196 1.78125,1.78125 l 0,10 c 0,0.98929 -0.79196,1.78125 -1.78125,1.78125 l -17.6875,0 c -0.98929,0 -1.78125,-0.79196 -1.78125,-1.78125 l 0,-10 c 0,-0.98929 0.79196,-1.78125 1.78125,-1.78125 z m 26,0 17.6875,0 c 0.98929,0 1.78125,0.79196 1.78125,1.78125 l 0,10 c 0,0.98929 -0.79196,1.78125 -1.78125,1.78125 l -17.6875,0 c -0.98929,0 -1.78125,-0.79196 -1.78125,-1.78125 l 0,-10 c 0,-0.98929 0.79196,-1.78125 1.78125,-1.78125 z m -75.999996,12 14.999996,0 c 0.98929,0 1.8125,0.79196 1.8125,1.78125 l 0,10 c 0,0.98929 -0.82321,1.78125 -1.8125,1.78125 l -14.999996,0 c -0.98929,0 -1.78125,-0.79196 -1.78125,-1.78125 l 0,-10 c 0,-0.98929 0.79196,-1.78125 1.78125,-1.78125 z m 21.999996,0 15,0 c 0.98929,0 1.8125,0.79196 1.8125,1.78125 l 0,10 c 0,0.98929 -0.82321,1.78125 -1.8125,1.78125 l -15,0 c -0.98929,0 -1.78125,-0.79196 -1.78125,-1.78125 l 0,-10 c 0,-0.98929 0.79196,-1.78125 1.78125,-1.78125 z"
       id="path4374" />
    <text
       xml:space="preserve"
       style="font-size:142.72883606px;font-style:normal;font-weight:normal;line-height:125%;letter-spacing:0px;word-spacing:0px;fill:#d3d7cf;fill-opacity:1;stroke:none;font-family:Sans"
       x="206.20676"
       y="741.75952"
       id="text4376"
       sodipodi:linespacing="125%"
       inkscape:export-filename="C:\wamp\www\registra_requerimento\images\logo.png"
       inkscape:export-xdpi="20.345478"
       inkscape:export-ydpi="20.345478"><tspan
         sodipodi:role="line"
         id="tspan4378"
         x="206.20676"
         y="741.75952"
         style="font-style:normal;font-variant:normal;font-weight:bold;font-stretch:normal;fill:#d3d7cf;font-family:Xolonium;-inkscape-font-specification:Xolonium">Urban</tspan></text>
    <text
       sodipodi:linespacing="125%"
       id="text4380"
       y="742.11816"
       x="727.71021"
       style="font-size:67.75804901px;font-style:normal;font-weight:normal;line-height:125%;letter-spacing:0px;word-spacing:0px;fill:#d3d7cf;fill-opacity:1;stroke:none;font-family:Sans"
       xml:space="preserve"
       inkscape:export-filename="C:\wamp\www\registra_requerimento\images\logo.png"
       inkscape:export-xdpi="20.345478"
       inkscape:export-ydpi="20.345478"><tspan
         style="font-style:normal;font-variant:normal;font-weight:bold;font-stretch:normal;fill:#d3d7cf;font-family:Xolonium;-inkscape-font-specification:Xolonium"
         y="742.11816"
         x="727.71021"
         id="tspan4382"
         sodipodi:role="line">admin</tspan></text>
  </g>
</svg>
