<?xml version="1.0" encoding="UTF-8" standalone="no"?>
<!-- Created with Inkscape (http://www.inkscape.org/) -->

<svg
   xmlns:dc="http://purl.org/dc/elements/1.1/"
   xmlns:cc="http://creativecommons.org/ns#"
   xmlns:rdf="http://www.w3.org/1999/02/22-rdf-syntax-ns#"
   xmlns:svg="http://www.w3.org/2000/svg"
   xmlns="http://www.w3.org/2000/svg"
   xmlns:sodipodi="http://sodipodi.sourceforge.net/DTD/sodipodi-0.dtd"
   xmlns:inkscape="http://www.inkscape.org/namespaces/inkscape"
   width="744.09448819"
   height="1052.3622047"
   id="svg2"
   version="1.1"
   inkscape:version="0.48.4 r9939"
   sodipodi:docname="icones.svg">
  <defs
     id="defs4" />
  <sodipodi:namedview
     id="base"
     pagecolor="#ffffff"
     bordercolor="#666666"
     borderopacity="1.0"
     inkscape:pageopacity="0.0"
     inkscape:pageshadow="2"
     inkscape:zoom="0.7"
     inkscape:cx="201.92805"
     inkscape:cy="59.953101"
     inkscape:document-units="px"
     inkscape:current-layer="layer1"
     showgrid="false"
     inkscape:window-width="1366"
     inkscape:window-height="706"
     inkscape:window-x="-8"
     inkscape:window-y="-8"
     inkscape:window-maximized="1" />
  <metadata
     id="metadata7">
    <rdf:RDF>
      <cc:Work
         rdf:about="">
        <dc:format>image/svg+xml</dc:format>
        <dc:type
           rdf:resource="http://purl.org/dc/dcmitype/StillImage" />
        <dc:title></dc:title>
      </cc:Work>
    </rdf:RDF>
  </metadata>
  <g
     inkscape:label="Layer 1"
     inkscape:groupmode="layer"
     id="layer1">
    <g
       id="g3818"
       transform="translate(0,42)"
       inkscape:export-filename="C:\wamp\www\registra_requerimento\images\situacao_2.png"
       inkscape:export-xdpi="25.304358"
       inkscape:export-ydpi="25.304358">
      <rect
         y="529.83533"
         x="182.61598"
         height="11.910876"
         width="317.62518"
         id="rect2985"
         style="fill:#ffffff;fill-opacity:1;stroke:#eeeeec;stroke-width:1.95218074;stroke-miterlimit:4;stroke-opacity:1;stroke-dasharray:none" />
      <path
         transform="matrix(0.75359342,0,0,0.75359342,49.71546,133.52955)"
         d="m 212.85714,533.79077 c 0,18.93548 -15.35024,34.28571 -34.28571,34.28571 -18.93548,0 -34.28572,-15.35023 -34.28572,-34.28571 0,-18.93548 15.35024,-34.28571 34.28572,-34.28571 18.93547,0 34.28571,15.35023 34.28571,34.28571 z"
         sodipodi:ry="34.285713"
         sodipodi:rx="34.285713"
         sodipodi:cy="533.79077"
         sodipodi:cx="178.57143"
         id="path3755"
         style="fill:#eeeeec;fill-opacity:1;stroke:#eeeeec;stroke-width:2.65395093;stroke-miterlimit:4;stroke-opacity:1;stroke-dasharray:none"
         sodipodi:type="arc" />
      <path
         sodipodi:type="arc"
         style="fill:#eeeeec;fill-opacity:1;stroke:#eeeeec;stroke-width:2.65395093;stroke-miterlimit:4;stroke-opacity:1;stroke-dasharray:none"
         id="path3757"
         sodipodi:cx="178.57143"
         sodipodi:cy="533.79077"
         sodipodi:rx="34.285713"
         sodipodi:ry="34.285713"
         d="m 212.85714,533.79077 c 0,18.93548 -15.35024,34.28571 -34.28571,34.28571 -18.93548,0 -34.28572,-15.35023 -34.28572,-34.28571 0,-18.93548 15.35024,-34.28571 34.28572,-34.28571 18.93547,0 34.28571,15.35023 34.28571,34.28571 z"
         transform="matrix(0.75359342,0,0,0.75359342,150.38212,133.52955)" />
      <path
         transform="matrix(0.75359342,0,0,0.75359342,251.04879,133.52955)"
         d="m 212.85714,533.79077 c 0,18.93548 -15.35024,34.28571 -34.28571,34.28571 -18.93548,0 -34.28572,-15.35023 -34.28572,-34.28571 0,-18.93548 15.35024,-34.28571 34.28572,-34.28571 18.93547,0 34.28571,15.35023 34.28571,34.28571 z"
         sodipodi:ry="34.285713"
         sodipodi:rx="34.285713"
         sodipodi:cy="533.79077"
         sodipodi:cx="178.57143"
         id="path3759"
         style="fill:#4e9a06;fill-opacity:1;stroke:#eeeeec;stroke-width:2.65395093;stroke-miterlimit:4;stroke-opacity:1;stroke-dasharray:none"
         sodipodi:type="arc" />
      <path
         sodipodi:type="arc"
         style="fill:#eeeeec;fill-opacity:1;stroke:#eeeeec;stroke-width:2.65395093;stroke-miterlimit:4;stroke-opacity:1;stroke-dasharray:none"
         id="path3761"
         sodipodi:cx="178.57143"
         sodipodi:cy="533.79077"
         sodipodi:rx="34.285713"
         sodipodi:ry="34.285713"
         d="m 212.85714,533.79077 c 0,18.93548 -15.35024,34.28571 -34.28571,34.28571 -18.93548,0 -34.28572,-15.35023 -34.28572,-34.28571 0,-18.93548 15.35024,-34.28571 34.28572,-34.28571 18.93547,0 34.28571,15.35023 34.28571,34.28571 z"
         transform="matrix(0.75359342,0,0,0.75359342,351.71545,133.52955)" />
    </g>
    <g
       id="g3811"
       transform="translate(0,64)"
       inkscape:export-filename="C:\wamp\www\registra_requerimento\images\situacao_3.png"
       inkscape:export-xdpi="25.304358"
       inkscape:export-ydpi="25.304358">
      <rect
         style="fill:#ffffff;fill-opacity:1;stroke:#eeeeec;stroke-width:1.95218074;stroke-miterlimit:4;stroke-opacity:1;stroke-dasharray:none"
         id="rect3765"
         width="317.62518"
         height="11.910876"
         x="182.61598"
         y="675.83533" />
      <path
         sodipodi:type="arc"
         style="fill:#eeeeec;fill-opacity:1;stroke:#eeeeec;stroke-width:2.65395093;stroke-miterlimit:4;stroke-opacity:1;stroke-dasharray:none"
         id="path3767"
         sodipodi:cx="178.57143"
         sodipodi:cy="533.79077"
         sodipodi:rx="34.285713"
         sodipodi:ry="34.285713"
         d="m 212.85714,533.79077 c 0,18.93548 -15.35024,34.28571 -34.28571,34.28571 -18.93548,0 -34.28572,-15.35023 -34.28572,-34.28571 0,-18.93548 15.35024,-34.28571 34.28572,-34.28571 18.93547,0 34.28571,15.35023 34.28571,34.28571 z"
         transform="matrix(0.75359342,0,0,0.75359342,49.71546,279.52955)" />
      <path
         transform="matrix(0.75359342,0,0,0.75359342,150.38212,279.52955)"
         d="m 212.85714,533.79077 c 0,18.93548 -15.35024,34.28571 -34.28571,34.28571 -18.93548,0 -34.28572,-15.35023 -34.28572,-34.28571 0,-18.93548 15.35024,-34.28571 34.28572,-34.28571 18.93547,0 34.28571,15.35023 34.28571,34.28571 z"
         sodipodi:ry="34.285713"
         sodipodi:rx="34.285713"
         sodipodi:cy="533.79077"
         sodipodi:cx="178.57143"
         id="path3769"
         style="fill:#eeeeec;fill-opacity:1;stroke:#eeeeec;stroke-width:2.65395093;stroke-miterlimit:4;stroke-opacity:1;stroke-dasharray:none"
         sodipodi:type="arc" />
      <path
         sodipodi:type="arc"
         style="fill:#eeeeec;fill-opacity:1;stroke:#eeeeec;stroke-width:2.65395093;stroke-miterlimit:4;stroke-opacity:1;stroke-dasharray:none"
         id="path3771"
         sodipodi:cx="178.57143"
         sodipodi:cy="533.79077"
         sodipodi:rx="34.285713"
         sodipodi:ry="34.285713"
         d="m 212.85714,533.79077 c 0,18.93548 -15.35024,34.28571 -34.28571,34.28571 -18.93548,0 -34.28572,-15.35023 -34.28572,-34.28571 0,-18.93548 15.35024,-34.28571 34.28572,-34.28571 18.93547,0 34.28571,15.35023 34.28571,34.28571 z"
         transform="matrix(0.75359342,0,0,0.75359342,251.04879,279.52955)" />
      <path
         transform="matrix(0.75359342,0,0,0.75359342,351.71545,279.52955)"
         d="m 212.85714,533.79077 c 0,18.93548 -15.35024,34.28571 -34.28571,34.28571 -18.93548,0 -34.28572,-15.35023 -34.28572,-34.28571 0,-18.93548 15.35024,-34.28571 34.28572,-34.28571 18.93547,0 34.28571,15.35023 34.28571,34.28571 z"
         sodipodi:ry="34.285713"
         sodipodi:rx="34.285713"
         sodipodi:cy="533.79077"
         sodipodi:cx="178.57143"
         id="path3773"
         style="fill:#204a87;fill-opacity:1;stroke:#eeeeec;stroke-width:2.65395093;stroke-miterlimit:4;stroke-opacity:1;stroke-dasharray:none"
         sodipodi:type="arc" />
    </g>
    <g
       id="g3825"
       transform="translate(0,30)"
       inkscape:export-filename="C:\wamp\www\registra_requerimento\images\situacao_1.png"
       inkscape:export-xdpi="25.304358"
       inkscape:export-ydpi="25.304358">
      <rect
         style="fill:#ffffff;fill-opacity:1;stroke:#eeeeec;stroke-width:1.95218074;stroke-miterlimit:4;stroke-opacity:1;stroke-dasharray:none"
         id="rect3775"
         width="317.62518"
         height="11.910876"
         x="182.61598"
         y="377.83533" />
      <path
         sodipodi:type="arc"
         style="fill:#eeeeec;fill-opacity:1;stroke:#eeeeec;stroke-width:2.65395093;stroke-miterlimit:4;stroke-opacity:1;stroke-dasharray:none"
         id="path3777"
         sodipodi:cx="178.57143"
         sodipodi:cy="533.79077"
         sodipodi:rx="34.285713"
         sodipodi:ry="34.285713"
         d="m 212.85714,533.79077 c 0,18.93548 -15.35024,34.28571 -34.28571,34.28571 -18.93548,0 -34.28572,-15.35023 -34.28572,-34.28571 0,-18.93548 15.35024,-34.28571 34.28572,-34.28571 18.93547,0 34.28571,15.35023 34.28571,34.28571 z"
         transform="matrix(0.75359342,0,0,0.75359342,49.71546,-18.47045)" />
      <path
         transform="matrix(0.75359342,0,0,0.75359342,150.38212,-18.47045)"
         d="m 212.85714,533.79077 c 0,18.93548 -15.35024,34.28571 -34.28571,34.28571 -18.93548,0 -34.28572,-15.35023 -34.28572,-34.28571 0,-18.93548 15.35024,-34.28571 34.28572,-34.28571 18.93547,0 34.28571,15.35023 34.28571,34.28571 z"
         sodipodi:ry="34.285713"
         sodipodi:rx="34.285713"
         sodipodi:cy="533.79077"
         sodipodi:cx="178.57143"
         id="path3779"
         style="fill:#edd400;fill-opacity:1;stroke:#eeeeec;stroke-width:2.65395093;stroke-miterlimit:4;stroke-opacity:1;stroke-dasharray:none"
         sodipodi:type="arc" />
      <path
         sodipodi:type="arc"
         style="fill:#eeeeec;fill-opacity:1;stroke:#eeeeec;stroke-width:2.65395093;stroke-miterlimit:4;stroke-opacity:1;stroke-dasharray:none"
         id="path3781"
         sodipodi:cx="178.57143"
         sodipodi:cy="533.79077"
         sodipodi:rx="34.285713"
         sodipodi:ry="34.285713"
         d="m 212.85714,533.79077 c 0,18.93548 -15.35024,34.28571 -34.28571,34.28571 -18.93548,0 -34.28572,-15.35023 -34.28572,-34.28571 0,-18.93548 15.35024,-34.28571 34.28572,-34.28571 18.93547,0 34.28571,15.35023 34.28571,34.28571 z"
         transform="matrix(0.75359342,0,0,0.75359342,251.04879,-18.47045)" />
      <path
         transform="matrix(0.75359342,0,0,0.75359342,351.71545,-18.47045)"
         d="m 212.85714,533.79077 c 0,18.93548 -15.35024,34.28571 -34.28571,34.28571 -18.93548,0 -34.28572,-15.35023 -34.28572,-34.28571 0,-18.93548 15.35024,-34.28571 34.28572,-34.28571 18.93547,0 34.28571,15.35023 34.28571,34.28571 z"
         sodipodi:ry="34.285713"
         sodipodi:rx="34.285713"
         sodipodi:cy="533.79077"
         sodipodi:cx="178.57143"
         id="path3783"
         style="fill:#eeeeec;fill-opacity:1;stroke:#eeeeec;stroke-width:2.65395093;stroke-miterlimit:4;stroke-opacity:1;stroke-dasharray:none"
         sodipodi:type="arc" />
    </g>
    <g
       id="g3832"
       inkscape:export-filename="C:\wamp\www\registra_requerimento\images\situacao_0.png"
       inkscape:export-xdpi="25.304358"
       inkscape:export-ydpi="25.304358">
      <rect
         y="237.83533"
         x="182.61598"
         height="11.910876"
         width="317.62518"
         id="rect3785"
         style="fill:#ffffff;fill-opacity:1;stroke:#eeeeec;stroke-width:1.95218074;stroke-miterlimit:4;stroke-opacity:1;stroke-dasharray:none" />
      <path
         transform="matrix(0.75359342,0,0,0.75359342,49.71546,-158.47045)"
         d="m 212.85714,533.79077 a 34.285713,34.285713 0 1 1 -68.57143,0 34.285713,34.285713 0 1 1 68.57143,0 z"
         sodipodi:ry="34.285713"
         sodipodi:rx="34.285713"
         sodipodi:cy="533.79077"
         sodipodi:cx="178.57143"
         id="path3787"
         style="fill:#cc0000;fill-opacity:1;stroke:#eeeeec;stroke-width:2.65395093;stroke-miterlimit:4;stroke-opacity:1;stroke-dasharray:none"
         sodipodi:type="arc" />
      <path
         sodipodi:type="arc"
         style="fill:#eeeeec;fill-opacity:1;stroke:#eeeeec;stroke-width:2.65395093000000020;stroke-miterlimit:4;stroke-opacity:1;stroke-dasharray:none"
         id="path3789"
         sodipodi:cx="178.57143"
         sodipodi:cy="533.79077"
         sodipodi:rx="34.285713"
         sodipodi:ry="34.285713"
         d="m 212.85714,533.79077 a 34.285713,34.285713 0 1 1 -68.57143,0 34.285713,34.285713 0 1 1 68.57143,0 z"
         transform="matrix(0.75359342,0,0,0.75359342,150.38212,-158.47045)" />
      <path
         transform="matrix(0.75359342,0,0,0.75359342,251.04879,-158.47045)"
         d="m 212.85714,533.79077 a 34.285713,34.285713 0 1 1 -68.57143,0 34.285713,34.285713 0 1 1 68.57143,0 z"
         sodipodi:ry="34.285713"
         sodipodi:rx="34.285713"
         sodipodi:cy="533.79077"
         sodipodi:cx="178.57143"
         id="path3791"
         style="fill:#eeeeec;fill-opacity:1;stroke:#eeeeec;stroke-width:2.65395093000000020;stroke-miterlimit:4;stroke-opacity:1;stroke-dasharray:none"
         sodipodi:type="arc" />
      <path
         sodipodi:type="arc"
         style="fill:#eeeeec;fill-opacity:1;stroke:#eeeeec;stroke-width:2.65395093000000020;stroke-miterlimit:4;stroke-opacity:1;stroke-dasharray:none"
         id="path3793"
         sodipodi:cx="178.57143"
         sodipodi:cy="533.79077"
         sodipodi:rx="34.285713"
         sodipodi:ry="34.285713"
         d="m 212.85714,533.79077 a 34.285713,34.285713 0 1 1 -68.57143,0 34.285713,34.285713 0 1 1 68.57143,0 z"
         transform="matrix(0.75359342,0,0,0.75359342,351.71545,-158.47045)" />
    </g>
    <text
       xml:space="preserve"
       style="font-size:40px;font-style:normal;font-weight:normal;line-height:125%;letter-spacing:0px;word-spacing:0px;fill:#2e3436;fill-opacity:1;stroke:none;font-family:Sans"
       x="227.67828"
       y="201.79076"
       id="text3795"
       sodipodi:linespacing="125%"
       inkscape:export-filename="C:\wamp\www\registra_requerimento\images\situacao_0.png"
       inkscape:export-xdpi="25.304358"
       inkscape:export-ydpi="25.304358"><tspan
         sodipodi:role="line"
         id="tspan3797"
         x="227.67828"
         y="201.79076"
         style="font-size:40px;font-style:normal;font-variant:normal;font-weight:bold;font-stretch:normal;text-align:start;line-height:125%;writing-mode:lr-tb;text-anchor:start;fill:#2e3436;font-family:Kartika;-inkscape-font-specification:Kartika Bold">Em análise</tspan></text>
    <text
       sodipodi:linespacing="125%"
       id="text3799"
       y="371.79077"
       x="241.05719"
       style="font-size:40px;font-style:normal;font-weight:normal;line-height:125%;letter-spacing:0px;word-spacing:0px;fill:#2e3436;fill-opacity:1;stroke:none;font-family:Sans"
       xml:space="preserve"
       inkscape:export-filename="C:\wamp\www\registra_requerimento\images\situacao_1.png"
       inkscape:export-xdpi="25.304358"
       inkscape:export-ydpi="25.304358"><tspan
         style="font-size:40px;font-style:normal;font-variant:normal;font-weight:bold;font-stretch:normal;text-align:start;line-height:125%;writing-mode:lr-tb;text-anchor:start;fill:#2e3436;font-family:Kartika;-inkscape-font-specification:Kartika Bold"
         y="371.79077"
         x="241.05719"
         id="tspan3801"
         sodipodi:role="line">Analisado</tspan></text>
    <text
       xml:space="preserve"
       style="font-size:40px;font-style:normal;font-weight:normal;line-height:125%;letter-spacing:0px;word-spacing:0px;fill:#2e3436;fill-opacity:1;stroke:none;font-family:Sans"
       x="218.92828"
       y="543.79077"
       id="text3803"
       sodipodi:linespacing="125%"
       inkscape:export-filename="C:\wamp\www\registra_requerimento\images\situacao_2.png"
       inkscape:export-xdpi="25.304358"
       inkscape:export-ydpi="25.304358"><tspan
         sodipodi:role="line"
         id="tspan3805"
         x="218.92828"
         y="543.79077"
         style="font-size:40px;font-style:normal;font-variant:normal;font-weight:bold;font-stretch:normal;text-align:start;line-height:125%;writing-mode:lr-tb;text-anchor:start;fill:#2e3436;font-family:Kartika;-inkscape-font-specification:Kartika Bold">Protocolado</tspan></text>
    <text
       sodipodi:linespacing="125%"
       id="text3807"
       y="705.79077"
       x="238.77203"
       style="font-size:40px;font-style:normal;font-weight:normal;line-height:125%;letter-spacing:0px;word-spacing:0px;fill:#2e3436;fill-opacity:1;stroke:none;font-family:Sans"
       xml:space="preserve"
       inkscape:export-filename="C:\wamp\www\registra_requerimento\images\situacao_3.png"
       inkscape:export-xdpi="25.304358"
       inkscape:export-ydpi="25.304358"><tspan
         style="font-size:40px;font-style:normal;font-variant:normal;font-weight:bold;font-stretch:normal;text-align:start;line-height:125%;writing-mode:lr-tb;text-anchor:start;fill:#2e3436;font-family:Kartika;-inkscape-font-specification:Kartika Bold"
         y="705.79077"
         x="238.77203"
         id="tspan3809"
         sodipodi:role="line">Concluído</tspan></text>
    <path
       sodipodi:type="star"
       style="fill:#73d216;fill-opacity:1;stroke:#beef8e;stroke-width:5;stroke-miterlimit:4;stroke-opacity:1;stroke-dasharray:none;stroke-linejoin:round;stroke-linecap:round"
       id="path3841"
       sodipodi:sides="3"
       sodipodi:cx="422.85715"
       sodipodi:cy="879.50507"
       sodipodi:r1="45.714287"
       sodipodi:r2="22.857143"
       sodipodi:arg1="3.1415927"
       sodipodi:arg2="4.1887902"
       inkscape:flatsided="false"
       inkscape:rounded="0"
       inkscape:randomized="0"
       d="m 377.14286,879.50506 34.28572,-19.79486 34.28571,-19.79487 0,39.58974 0,39.58973 -34.28571,-19.79487 z"
       inkscape:transform-center-x="11.428571"
       transform="translate(-50,25)"
       inkscape:export-filename="C:\wamp\www\registra_requerimento\images\retornar_situacao.png"
       inkscape:export-xdpi="21.382683"
       inkscape:export-ydpi="21.382683" />
    <path
       transform="matrix(-1,0,0,1,858.57144,25)"
       inkscape:transform-center-x="-11.428572"
       d="m 377.14286,879.50506 34.28572,-19.79486 34.28571,-19.79487 0,39.58974 0,39.58973 -34.28571,-19.79487 z"
       inkscape:randomized="0"
       inkscape:rounded="0"
       inkscape:flatsided="false"
       sodipodi:arg2="4.1887902"
       sodipodi:arg1="3.1415927"
       sodipodi:r2="22.857143"
       sodipodi:r1="45.714287"
       sodipodi:cy="879.50507"
       sodipodi:cx="422.85715"
       sodipodi:sides="3"
       id="path3843"
       style="fill:#73d216;fill-opacity:1;stroke:#beef8e;stroke-width:5;stroke-miterlimit:4;stroke-opacity:1;stroke-dasharray:none;stroke-linejoin:round;stroke-linecap:round"
       sodipodi:type="star"
       inkscape:export-filename="C:\wamp\www\registra_requerimento\images\avancar_situacao.png"
       inkscape:export-xdpi="21.382683"
       inkscape:export-ydpi="21.382683" />
    <path
       inkscape:export-ydpi="21.382683"
       inkscape:export-xdpi="21.382683"
       inkscape:export-filename="C:\wamp\www\registra_requerimento\images\retornar_situacao_d.png"
       transform="translate(-290,25)"
       inkscape:transform-center-x="11.428571"
       d="m 377.14286,879.50506 34.28572,-19.79486 34.28571,-19.79487 0,39.58974 0,39.58973 -34.28571,-19.79487 z"
       inkscape:randomized="0"
       inkscape:rounded="0"
       inkscape:flatsided="false"
       sodipodi:arg2="4.1887902"
       sodipodi:arg1="3.1415927"
       sodipodi:r2="22.857143"
       sodipodi:r1="45.714287"
       sodipodi:cy="879.50507"
       sodipodi:cx="422.85715"
       sodipodi:sides="3"
       id="path3845"
       style="fill:#babdb6;fill-opacity:1;stroke:#d3d7cf;stroke-width:5;stroke-linecap:round;stroke-linejoin:round;stroke-miterlimit:4;stroke-opacity:1;stroke-dasharray:none"
       sodipodi:type="star" />
    <path
       inkscape:export-ydpi="21.382683"
       inkscape:export-xdpi="21.382683"
       inkscape:export-filename="C:\wamp\www\registra_requerimento\images\avancar_situacao_d.png"
       sodipodi:type="star"
       style="fill:#babdb6;fill-opacity:1;stroke:#d3d7cf;stroke-width:5;stroke-linecap:round;stroke-linejoin:round;stroke-miterlimit:4;stroke-opacity:1;stroke-dasharray:none"
       id="path3847"
       sodipodi:sides="3"
       sodipodi:cx="422.85715"
       sodipodi:cy="879.50507"
       sodipodi:r1="45.714287"
       sodipodi:r2="22.857143"
       sodipodi:arg1="3.1415927"
       sodipodi:arg2="4.1887902"
       inkscape:flatsided="false"
       inkscape:rounded="0"
       inkscape:randomized="0"
       d="m 377.14286,879.50506 34.28572,-19.79486 34.28571,-19.79487 0,39.58974 0,39.58973 -34.28571,-19.79487 z"
       inkscape:transform-center-x="-11.428572"
       transform="matrix(-1,0,0,1,618.57144,25)" />
    <path
       style="fill:#babdb6;fill-opacity:1;stroke:#d3d7cf;stroke-width:5;stroke-linecap:round;stroke-linejoin:round;stroke-miterlimit:4;stroke-opacity:1;stroke-dasharray:none"
       id="path3849"
       d="m -282.00201,175.72726 c -1.31051,17.42424 -1.17742,34.92291 -1.21582,52.38527 -1.39782,31.67926 -0.69551,63.40623 -0.0962,95.09736 0.20292,12.3691 0.63832,24.73175 1.07387,37.09414 0.0931,2.49526 0.14744,4.99157 0.18121,7.48824 0,0 -18.73932,9.54816 -18.73932,9.54816 l 0,0 c 0.0341,-2.5582 0.0892,-5.11603 0.18121,-7.6729 0.43286,-12.72731 0.86694,-25.45483 1.07386,-38.18846 0.58741,-31.65809 1.31665,-63.35405 -0.0962,-94.99937 -0.0376,-17.04832 0.12869,-34.13915 -1.21581,-51.1463 0,0 18.85312,-9.60614 18.85312,-9.60614 z"
       inkscape:connector-curvature="0" />
    <path
       style="fill:#2e3436;fill-opacity:1;stroke:#d3d7cf;stroke-width:5;stroke-linecap:round;stroke-linejoin:round;stroke-miterlimit:4;stroke-opacity:1;stroke-dasharray:none"
       id="path3851"
       d="m -219.80465,177.62493 c 6.32456,0.20556 12.6558,0.14546 18.98269,0.0899 4.56239,-0.0341 9.1248,-0.0485 13.68724,-0.0725 1.46088,0.32927 3.70743,-0.62624 5.07193,0.23446 3.38423,2.13473 2.5438,11.76629 2.62383,14.37202 -0.23972,36.99761 0.0523,73.99171 -0.59811,110.98631 -0.83572,26.48072 -2.23122,52.92385 -4.59783,79.3107 -0.57646,6.54907 -1.3113,13.08729 -1.64265,19.65532 0,0 -18.75411,9.40028 -18.75411,9.40028 l 0,0 c 0.55765,-6.88392 2.00855,-13.6518 3.03347,-20.4733 4.11346,-26.69057 6.29263,-53.60237 7.52054,-80.57691 1.03456,-36.46324 1.11302,-72.98974 -2.18027,-109.35714 -0.15574,-1.18148 -0.80287,-8.28263 -1.79767,-10.63224 -0.61735,-1.4581 -4.52568,-0.2718 -5.60416,-0.62275 -4.49594,-0.024 -8.99186,-0.0382 -13.48774,-0.0725 -6.40951,-0.0577 -12.82283,-0.10986 -19.23023,0.0899 0,0 16.97307,-12.33165 16.97307,-12.33165 z"
       inkscape:connector-curvature="0" />
    <path
       style="fill:#2e3436;fill-opacity:1;stroke:#d3d7cf;stroke-width:5;stroke-linecap:round;stroke-linejoin:round;stroke-miterlimit:4;stroke-opacity:1;stroke-dasharray:none"
       id="path3853"
       d="m -263.41059,478.40333 c -0.49692,8.74779 -0.53379,17.51504 -0.67043,26.27384 -0.28896,15.15371 -1.37547,30.27049 -2.52041,45.37799 -1.30724,11.24963 -1.47519,22.61651 -3.00776,33.83761 -0.68976,5.24094 -1.93893,10.29839 -3.83703,15.22017 -2.02268,4.68583 -3.61465,9.49941 -5.03846,14.39192 -1.32212,3.80898 -3.10273,7.44686 -4.86984,11.0664 -1.31594,2.85649 -2.59792,5.71948 -4.04169,8.51581 -1.28609,2.5411 -2.23795,5.22939 -3.42008,7.82054 0,0 -19.13994,8.67837 -19.13994,8.67837 l 0,0 c 1.34104,-2.55043 2.40168,-5.20713 3.40711,-7.90349 1.54516,-2.74716 2.82576,-5.62113 4.10653,-8.49395 1.86991,-3.50763 3.51184,-7.13498 5.10046,-10.77744 1.5997,-4.8776 2.98459,-9.81664 5.03305,-14.53877 1.85484,-4.90021 3.55627,-9.80015 4.34875,-15.01765 2.30833,-11.21707 2.49001,-22.77145 3.97358,-34.10929 1.18016,-15.01832 2.36152,-30.04812 2.35348,-45.1249 -0.13523,-8.53096 -0.16448,-17.07146 -0.67042,-25.59064 0,0 18.8931,-9.62652 18.8931,-9.62652 z"
       inkscape:connector-curvature="0" />
    <path
       style="fill:#2e3436;fill-opacity:1;stroke:#d3d7cf;stroke-width:5;stroke-linecap:round;stroke-linejoin:round;stroke-miterlimit:4;stroke-opacity:1;stroke-dasharray:none"
       id="path3855"
       d="m -259.80465,479.0535 c 19.43839,0.78265 38.91323,0.28098 58.36267,0.14087 28.66506,0.0323 57.3193,-0.56599 85.94239,-2.10685 7.51389,-0.66636 15.10592,-0.62386 22.582716,-1.72328 2.748392,-0.40413 5.398926,-0.92962 7.777722,-2.36973 -5.895892,3.42404 -12.060864,6.42184 -17.687678,10.2721 -0.42925,0.29373 0.47846,0.94942 0.53244,1.46673 0.0275,0.26336 -0.0975,0.56705 -0.30274,0.73442 -0.27477,0.22412 -0.68988,0.18199 -1.00936,0.33583 -0.35638,0.17161 -1.34812,0.82745 -1.00345,0.6334 5.633405,-3.17169 11.247247,-6.37799 16.87087,-9.56698 -0.703901,0.86622 -1.500985,1.6644 -2.111704,2.59865 -1.533533,2.34594 -4.314246,7.94291 -5.401555,10.25823 -3.75053,7.98638 -6.953311,16.19597 -10.159281,24.40996 -8.43459,24.01655 -16.45998,48.16892 -25.28464,72.04656 -6.46516,16.91535 -13.55403,33.57764 -20.2899,50.38371 -3.61672,9.20264 -6.99005,18.4982 -10.43396,27.76637 0,0 -18.39921,8.52297 -18.39921,8.52297 l 0,0 c 3.86998,-9.35272 7.51551,-18.78851 11.2911,-28.17928 6.84219,-17.00565 14.33063,-33.74429 21.17293,-50.7515 9.16935,-23.6656 17.482,-47.65437 25.0059,-71.89493 4.35199,-12.72688 9.27244,-25.21789 15.06526,-37.36411 6.40107,-3.78497 12.755386,-7.65013 19.203199,-11.3549 0.864643,-0.4968 2.795542,-1.02886 3.659329,-0.22879 0.526213,0.4874 1.730867,1.38219 1.157903,1.81367 -5.730799,4.3156 -12.264884,7.44571 -18.397321,11.16856 -9.33714,2.423 -19.21597,1.12399 -28.72219,1.93215 -28.40526,0.85786 -56.81674,1.20282 -85.23226,1.52593 -20.39327,0.43824 -40.77995,1.06434 -61.16225,1.86189 0,0 16.97307,-12.33165 16.97307,-12.33165 z"
       inkscape:connector-curvature="0" />
    <path
       style="fill:#2e3436;fill-opacity:1;stroke:#d3d7cf;stroke-width:5;stroke-linecap:round;stroke-linejoin:round;stroke-miterlimit:4;stroke-opacity:1;stroke-dasharray:none"
       id="path3857"
       d="m -336.12346,768.05167 c 2.12645,5.72048 3.14287,11.74679 4.13049,17.74285 1.53824,9.4267 1.92156,18.98863 2.23804,28.51915 0.22588,10.44595 0.77808,20.88241 1.15273,31.32445 0.12833,8.62835 0.45946,17.22277 1.22678,25.8166 0.5878,6.32811 0.35856,12.70975 1.00698,19.02899 0.62702,3.61268 1.07563,7.21872 1.21506,10.88178 0.068,5.7268 0.0315,11.45346 0.1019,17.18033 0.0587,3.86621 0.10842,7.73252 0.13232,11.59911 0,0 -18.72703,9.53989 -18.72703,9.53989 l 0,0 c 0.0307,-3.91272 0.0919,-7.82502 0.14772,-11.73744 0.0576,-5.67091 0.0506,-11.34489 -0.22188,-17.01097 -0.20623,-3.63606 -0.62988,-7.24503 -1.08079,-10.8581 -0.46341,-6.37131 -0.16628,-12.78869 -0.81205,-19.15583 -0.54953,-8.70618 -0.74677,-17.41286 -0.80134,-26.136 -0.29915,-10.42879 -1.01804,-20.83578 -1.2829,-31.2637 -0.2446,-9.42139 -0.60391,-18.87295 -2.26465,-28.17197 -1.09291,-5.75458 -2.00132,-11.68155 -4.65951,-16.9693 0,0 18.49813,-10.32984 18.49813,-10.32984 z"
       inkscape:connector-curvature="0" />
    <path
       style="fill:#2e3436;fill-opacity:1;stroke:none;stroke-width:5;stroke-linecap:round;stroke-linejoin:round;stroke-miterlimit:4;stroke-opacity:1;stroke-dasharray:none"
       id="path3859"
       d="m -334.85402,771.8447 c 4.73813,0.1525 9.48209,0.15691 14.22267,0.15438 4.30124,-0.0189 8.6023,-0.0649 12.9035,-0.0907 3.43161,-0.0339 6.8629,0.008 10.29443,0.0304 4.56591,0.11404 9.17011,-0.22954 13.64335,-1.16384 3.4593,-0.86138 6.97427,-1.38402 10.52673,-1.62728 2.66716,0.17059 5.14183,-0.75784 7.74232,-1.15876 4.2395,-0.81187 5.10212,3.2176 5.66469,6.53408 0.37977,4.95079 -0.27158,9.86585 -1.09245,14.73443 -0.80284,4.84621 -1.02671,9.74563 -1.77523,14.60072 -1.22709,7.07779 -1.79765,14.24061 -2.10623,21.41005 -0.13531,4.64462 -0.16913,9.29155 -0.21475,13.93772 -0.0281,5.13841 -0.0233,10.27732 0.0123,15.41571 0.0554,4.41933 0.0528,8.83817 0.0145,13.25747 -0.0854,5.09239 -0.0369,10.18449 0.0268,15.27674 0.04,4.06243 0.006,8.12469 0.009,12.18711 -0.0277,3.87638 0.0201,7.75278 0.0473,11.62904 0.0206,2.98542 0.0255,5.97091 0.0283,8.95639 0.002,2.84933 0.001,5.69867 0.001,8.548 0,0 -18.75959,9.55849 -18.75959,9.55849 l 0,0 c -2e-4,-2.84969 -7.1e-4,-5.69938 0.001,-8.54908 0.003,-2.9951 0.008,-5.99022 0.0283,-8.98526 0.0271,-3.89234 0.0749,-7.78481 0.0473,-11.67727 0.003,-4.06542 -0.0311,-8.13069 0.009,-12.19612 0.0631,-5.10125 0.11299,-10.20237 0.0266,-15.30375 -0.0394,-4.42179 -0.0424,-8.84312 0.004,-13.26502 0.0255,-5.13889 0.012,-10.27815 -0.0201,-15.41697 -0.0344,-4.7045 -0.0405,-9.41119 0.30657,-14.10683 0.46972,-7.21935 1.10462,-14.43024 2.07877,-21.60082 0.64457,-4.83671 0.73524,-9.70499 1.46128,-14.53067 0.90168,-4.65655 1.78664,-9.31343 1.43752,-14.09002 -0.60345,-3.42867 -0.46012,-4.42905 -4.0898,-3.61862 -2.5847,0.52564 -5.14776,0.95119 -7.79868,0.95593 -3.45593,0.34305 -6.85903,0.98905 -10.26377,1.66488 -4.60434,0.65126 -9.23769,1.0293 -13.89191,0.89894 -3.45943,0.0219 -6.91863,0.0641 -10.37813,0.0304 -4.21796,-0.0258 -8.43577,-0.072 -12.65377,-0.0907 -4.88233,-0.003 -9.76751,0.007 -14.64764,0.15438 0,0 17.15457,-12.46353 17.15457,-12.46353 z"
       inkscape:connector-curvature="0" />
    <path
       style="fill:#2e3436;fill-opacity:1;stroke:none"
       id="path3861"
       d="m -186.32771,758.94654 c -0.49161,9.34615 -0.47858,18.71147 -0.5478,28.06795 -0.0265,14.58264 0.22875,29.12724 -0.58818,43.69397 -0.81792,14.91245 -2.32349,29.77477 -4.18169,44.58993 -0.71352,5.85444 -0.38614,3.07009 -0.98878,8.35227 0,0 -18.32131,9.01911 -18.32131,9.01911 l 0,0 c 0.8839,-5.4302 0.41319,-2.57211 1.4157,-8.57368 2.4021,-14.81092 4.29772,-29.71365 4.84676,-44.7238 0.72577,-14.45697 0.30284,-28.8841 0.13995,-43.35063 -0.0684,-9.17028 -0.0478,-18.35039 -0.5478,-27.50972 0,0 18.77315,-9.5654 18.77315,-9.5654 z"
       inkscape:connector-curvature="0" />
    <path
       style="fill:#2e3436;fill-opacity:1;stroke:none"
       id="path3863"
       d="m -177.55843,757.57218 c 11.60913,0.48619 23.23269,0.52459 34.85002,0.62531 18.08194,0.18505 36.16507,0.0894 54.245222,-0.19967 3.601404,0.26035 14.525498,-1.68801 16.982003,1.9733 0.518468,0.77276 0.61714,1.75584 0.92571,2.63376 -0.06112,1.17266 -0.0027,2.3577 -0.183362,3.51797 -0.436445,2.80305 -1.960294,7.53989 -2.763039,10.07401 -2.357311,7.44161 -4.900453,14.79001 -7.606256,22.11136 -7.327168,18.97973 -15.680878,37.52447 -22.900288,56.54851 -6.09243,15.7818 -10.94881,31.96142 -15.7658,48.16102 -1.7852,5.74993 -3.00855,11.64325 -4.41026,17.49066 0,0 -18.59009,8.84662 -18.59009,8.84662 l 0,0 c 1.87289,-5.94845 3.26309,-12.0387 5.25462,-17.95462 2.32261,-7.26403 4.46068,-14.60479 6.86876,-21.83924 2.99588,-9.00034 6.56666,-17.80338 9.60413,-26.78943 2.99879,-7.85726 4.21482,-11.2003 7.4385,-19.00864 5.12402,-12.41131 10.78924,-24.61875 15.116013,-37.34552 3.905809,-10.99785 7.900748,-22.22243 9.622515,-33.79633 -0.09664,-0.46881 -0.01675,-1.01336 -0.289924,-1.40642 -1.617322,-2.32708 -12.811524,-1.29272 -15.249814,-1.63114 -17.89684,-0.29932 -35.79683,-0.37913 -53.69557,-0.19967 -12.19124,0.10323 -24.38738,0.15622 -36.57136,0.62531 0,0 17.11827,-12.43715 17.11827,-12.43715 z"
       inkscape:connector-curvature="0" />
    <path
       style="fill:#2e3436;fill-opacity:1;stroke:none"
       id="path3865"
       d="m -347.59114,1327.0875 c 4.00303,-2.2106 7.55662,-5.0678 11.19806,-7.803 3.45171,-2.64 7.06347,-5.0597 10.54208,-7.6618 8.4204,-6.2423 17.64373,-11.4049 27.06336,-15.9775 0.54539,-0.3091 2.17946,-1.2399 1.63618,-0.9272 -5.29409,3.0475 -10.57562,6.1169 -15.88862,9.1312 -0.71946,0.4082 1.39206,-0.8948 2.10644,-1.3118 6.64155,-3.8769 13.36965,-7.6065 19.96039,-11.5691 5.18866,-3.1196 -21.00672,12.0493 -15.75347,9.0397 6.61261,-3.7883 13.22102,-7.584 19.83153,-11.376 -42.11214,24.2228 2.27859,-1.3524 3.43172,-2.0044 1.60535,-0.9078 1.45316,-0.5043 3.09466,-1.1737 0.82228,-0.3352 1.59305,-0.7875 2.41149,-1.1321 4.34162,-1.4681 8.45317,-3.4954 12.76714,-5.0344 3.66411,-1.1331 7.21169,-2.6059 10.87416,-3.7287 3.31298,-0.7236 6.4466,-1.9666 9.77326,-2.6286 3.59027,-1.1529 7.27467,-1.8845 11.02074,-2.2625 2.97689,-0.3089 5.87938,-1.0529 8.86884,-1.3695 3.33427,-0.2604 6.68399,-0.2331 10.02627,-0.2445 4.15104,0.2895 8.2233,-0.5801 12.34125,-0.9127 4.66662,-0.3645 9.35127,-0.4198 14.02992,-0.4502 4.83061,-0.016 9.66115,-0.033 14.49179,-0.02 4.39142,-0 8.7828,-0.01 13.1742,-0.021 4.509,-0.1231 9.01307,0.4263 13.4497,1.1988 5.75297,0.795 11.46434,1.8404 17.23653,2.4993 4.51015,0.8165 9.03909,1.4933 13.61165,1.8207 4.12877,0.7208 8.24109,1.5959 12.30396,2.6308 4.919507,1.5095 9.90346,2.7769 14.853236,4.1935 4.696526,1.6274 9.469757,3.0099 14.117292,4.7772 4.673074,2.0286 9.125516,4.5223 13.823496,6.4931 3.860033,1.1203 7.624247,2.4579 11.32237,4.0361 3.794706,1.3141 7.646836,2.4595 11.600989,3.1792 2.115336,0.1503 4.138092,0.5714 6.18522,1.095 0,0 -17.34858,11.9723 -17.34858,11.9723 l 0,0 c -1.990235,-0.4756 -4.008153,-0.734 -6.018803,-1.1073 -4.004847,-0.9133 -7.96018,-2.0775 -11.808153,-3.5168 -3.717829,-1.4809 -7.501347,-2.7463 -11.250413,-4.1359 -4.596269,-2.0883 -9.02758,-4.5373 -13.721246,-6.4116 -4.641049,-1.6456 -9.349318,-3.0903 -14.010918,-4.6761 -4.93619,-1.4584 -9.94663,-2.6148 -14.88903,-4.0505 -4.03252,-0.9113 -8.07239,-1.8674 -12.18606,-2.3277 -4.52853,-0.4441 -8.98488,-1.3451 -13.48328,-2.0105 -5.78242,-0.7744 -11.52564,-1.8182 -17.31965,-2.5138 -4.43457,-0.5875 -8.89098,-1.0314 -13.37132,-0.8657 -4.3663,-0.013 -8.73257,-0.023 -13.09887,-0.035 -4.82235,0.01 -9.64492,-0.025 -14.46703,0.033 -4.66494,0.076 -9.33565,0.1607 -13.98086,0.6366 -4.16287,0.4776 -8.32308,0.9606 -12.52412,0.8135 -3.32488,0.038 -6.66096,0.076 -9.96334,0.5042 -2.95011,0.4299 -5.85793,1.1284 -8.83923,1.3312 -3.66256,0.5062 -7.23389,1.4034 -10.79568,2.3864 -3.27594,0.8882 -6.5023,1.9575 -9.77478,2.8617 -3.54462,1.2525 -7.1476,2.3212 -10.661,3.6629 -4.3334,1.6791 -8.5984,3.5383 -12.9048,5.2833 -1.25695,0.5601 -2.55993,1.0162 -3.79943,1.6147 -0.49281,0.238 -1.92658,1.0385 -1.4541,0.7623 6.36667,-3.7215 41.53193,-24 -3.36223,1.9062 40.53897,-23.6118 -1.68735,0.98 -3.99279,2.336 -5.16472,3.0378 10.32783,-6.0792 15.53896,-9.0367 0.71192,-0.404 -1.32996,0.9588 -2.0358,1.3734 -17.93973,10.5363 -13.25258,8.0957 -21.54398,12.3496 -7.23781,3.5791 -3.10736,1.5842 14.69255,-8.7195 4.05882,-2.3495 -10.11901,5.9501 -5.97316,3.876 -3.44336,2.7367 -7.16154,5.0776 -10.64656,7.7597 -3.62171,2.5821 -6.93593,5.5478 -10.76389,7.8391 0,0 -19.74824,7.6188 -19.74824,7.6188 z"
       inkscape:connector-curvature="0" />
    <path
       style="fill:#2e3436;fill-opacity:1;stroke:none"
       id="path3867"
       d="m 127.84603,1300.9652 c 0.49671,-0.2861 1.98718,-1.1438 1.49014,-0.8583 -5.34493,3.0702 -10.68355,6.1515 -16.03379,9.2125 -0.64826,0.3709 1.28028,-0.7697 1.92769,-1.1421 7.80583,-4.4898 15.99412,-10.023 24.5865,-13.6055 4.77078,-2.1846 9.60025,-4.2414 14.46129,-6.217 6.91241,-2.7045 13.76927,-5.4808 20.78375,-7.9233 8.19881,-2.8532 16.55574,-5.2539 25.0057,-7.2363 7.71432,-1.9442 15.56986,-3.3787 23.45877,-4.4001 7.81691,-0.5791 15.60496,-1.3882 23.38337,-2.3503 8.47992,-1.4861 17.04092,-2.1823 25.6304,-2.5843 9.80023,-0.3756 19.60775,-0.2727 29.41238,-0.2454 12.17525,0.078 24.35059,0.074 36.52591,0.026 10.9682,0.097 21.94,-0.2144 32.90352,0.1623 9.07879,0.1631 18.02837,1.8024 26.9334,3.4283 5.26645,0.8359 10.52655,1.9154 15.48717,3.9064 3.46972,1.1234 6.84388,2.4412 10.10059,4.0941 2.99557,1.5917 6.1437,2.6123 9.34589,3.6632 3.33639,1.1193 6.59661,2.455 9.94143,3.5449 1.8186,0.7879 0.91201,0.4216 2.71837,1.1026 0,0 -17.47545,11.734 -17.47545,11.734 l 0,0 c -1.79468,-0.7157 -0.90204,-0.3651 -2.67777,-1.0521 -3.2612,-1.2388 -6.50968,-2.4973 -9.84799,-3.5235 -3.31283,-1.0057 -6.38971,-2.4385 -9.50839,-3.9333 -3.2459,-1.5358 -6.59564,-2.743 -9.96532,-3.9695 -4.80889,-1.8055 -9.80633,-2.9999 -14.8646,-3.8785 -8.72701,-1.7573 -17.54775,-3.1681 -26.4669,-3.3711 -10.91107,-0.3496 -21.83361,-0.1032 -32.74904,-0.1935 -12.18054,-0.063 -24.36126,-0.089 -36.54183,-0.01 -9.86922,0.05 -19.74319,0.1067 -29.60527,0.5104 -8.58753,0.4754 -17.12863,1.3634 -25.61973,2.7555 -7.79994,0.9457 -15.61566,1.6778 -23.43563,2.4246 -7.7968,1.1211 -15.56652,2.5095 -23.20107,4.4648 -8.41859,2.0992 -16.7708,4.4909 -24.93367,7.4438 -7.07043,2.5385 -14.00499,5.4023 -20.97087,8.2104 -4.84471,2.056 -9.69549,4.0981 -14.47534,6.3023 -0.79031,0.3806 -1.58994,0.7425 -2.37092,1.1419 -0.76188,0.3897 -2.9949,1.6569 -2.25632,1.2247 35.42083,-20.7275 2.32626,-1.0776 -7.59499,4.339 0,0 16.49862,-13.1973 16.49862,-13.1973 z"
       inkscape:connector-curvature="0" />
    <path
       style="fill:#2e3436;fill-opacity:1;stroke:none"
       id="path3869"
       d="m 748.987,1274.295 c -8.27977,-0.6251 -16.43636,0.9337 -24.51875,2.512 -32.36811,7.2612 -64.38607,15.9768 -96.5163,24.2074 -41.91763,11.2505 -83.66809,23.1374 -124.89805,36.7054 -11.23856,3.7463 -22.22685,8.1456 -32.72851,13.6228 0,0 15.62404,-12.4964 15.62404,-12.4964 l 0,0 c 9.96707,-4.7414 20.32642,-8.5332 30.87283,-11.7921 40.82693,-12.4967 81.97653,-23.893 123.13491,-35.241 33.3612,-8.9285 66.56461,-18.4547 100.0784,-26.7999 8.60341,-1.8092 17.24173,-3.2953 26.0697,-3.1553 0,0 -17.11827,12.4371 -17.11827,12.4371 z"
       inkscape:connector-curvature="0" />
    <path
       style="fill:#2e3436;fill-opacity:1;stroke:none"
       id="path3871"
       d="m 435.0994,1215.0534 c 10.35201,-5.2739 22.12416,-7.4021 33.42595,-9.6728 25.59597,-5.314 51.69581,-7.0957 77.73826,-8.5452 22.15307,-0.9852 44.3314,-2.0164 66.47849,-0.557 12.41299,0.9537 24.57585,3.7225 36.51643,7.133 4.57334,1.6281 9.08171,3.3579 13.91227,3.9928 0,0 -17.14685,12.0369 -17.14685,12.0369 l 0,0 c -4.72248,-0.924 -9.07975,-2.876 -13.56813,-4.5645 -11.44635,-3.7089 -23.22693,-6.406 -35.23176,-7.4881 -21.74046,-1.6048 -43.53317,-0.8427 -65.29889,-0.016 -26.31938,1.4079 -52.65582,3.552 -78.42154,9.412 -11.87218,2.6811 -24.16445,5.31 -34.78212,11.5191 0,0 16.37789,-13.2505 16.37789,-13.2505 z"
       inkscape:connector-curvature="0" />
    <path
       style="fill:#2e3436;fill-opacity:1;stroke:none"
       id="path3873"
       d="m -99.019715,1221.3732 c 8.835065,-5.5493 17.945029,-10.5932 26.987323,-15.8197 4.941723,-2.8564 -9.889326,5.7025 -14.835989,8.5502 -0.922997,0.5314 1.843325,-1.0673 2.764988,-1.601 15.608768,-10.2894 23.24207,-13.2752 39.472607,-16.7926 12.946448,-3.0369 26.063354,-5.2257 39.114647,-7.7477 13.7390177,-3.1291 27.735908,-4.4579 41.776666,-5.1625 16.956607,-0.5559 33.934837,-0.5196 50.894319,-0.1208 20.427764,0.6819 40.884174,1.2125 61.251564,2.9868 17.06428,1.5654 33.88806,4.8612 50.76882,7.6828 6.53212,1.0437 13.11569,1.6978 19.68192,2.4794 0,0 -16.20265,11.4603 -16.20265,11.4603 l 0,0 c -6.47828,-0.8853 -12.97611,-1.6401 -19.4179,-2.7737 -16.64184,-3.0069 -33.25882,-6.2563 -50.10407,-7.9478 -20.35523,-1.6758 -40.787308,-2.328 -61.200424,-2.8667 -17.146282,-0.1714 -34.301055,-0.019 -51.435471,0.6836 -13.9832419,0.8119 -27.9092731,2.2967 -41.601781,5.3617 -13.226509,2.5098 -26.482264,4.8839 -39.545675,8.1692 -4.200224,1.0299 -8.406898,2.0408 -12.519818,3.39 -7.010796,2.3 -19.946931,9.4894 8.288888,-6.1809 -11.458049,6.6021 -41.555469,23.97 -8.322679,4.7815 1.535482,-0.8866 -3.026735,1.8494 -4.502366,2.8324 -0.517664,0.3448 -1.043114,0.6778 -1.564671,1.0167 0,0 -19.748248,7.6188 -19.748248,7.6188 z"
       inkscape:connector-curvature="0" />
    <path
       style="fill:#2e3436;fill-opacity:1;stroke:none"
       id="path3875"
       d="m -19.056232,997.00168 c 0.456323,4.02572 1.443597,7.97392 2.370653,11.91232 1.353923,4.4958 2.48151,9.0478 3.280935,13.6736 0.711011,5.353 1.399567,10.7126 2.010782,16.0792 0.377091,4.9092 0.790216,9.8112 1.213338,14.7179 0.3825387,6.459 1.0362101,12.8962 1.5440189,19.3458 0.4990385,6.5527 0.6030888,13.1272 0.6386683,19.6962 0.041076,6.7154 -0.010281,13.4312 0.034037,20.1466 0.04033,5.3981 -0.1491848,10.7903 0.4653844,16.1611 0.5404326,3.4679 0.8675546,6.9511 1.0193483,10.4554 0.1193296,3.1653 0.1367249,6.3332 0.147174,9.5004 0.00504,2.8825 0.00124,5.7649 -5.118e-4,8.6474 -0.0017,2.8538 -0.00212,5.7077 -0.00239,8.5616 -1.871e-4,2.8565 -1.535e-4,5.7131 -1.431e-4,8.5696 1.48e-5,2.8571 2.35e-5,5.7143 2.82e-5,8.5715 6e-7,0.4762 1.1e-6,0.9523 1.7e-6,1.4285 0,0 -18.7587617,9.5581 -18.7587617,9.5581 l 0,0 c -1e-6,-0.4762 -1e-6,-0.9524 -1e-6,-1.4286 -3e-6,-2.8571 -6e-6,-5.7143 -3.7e-5,-8.5714 -3.4e-5,-2.8566 -1.03e-4,-5.7131 -1.26e-4,-8.5696 3.4e-5,-2.8543 -2.2e-5,-5.7086 0.0018,-8.5629 0.0024,-2.8841 0.0067,-5.7682 0.01553,-8.6523 0.0077,-3.1509 0.02467,-6.3025 -0.05804,-9.4526 -0.12769,-3.4756 -0.405673,-6.9408 -0.83785,-10.3926 -0.548844,-5.4837 -0.369972,-10.9742 -0.331761,-16.4804 0.05357,-6.714 0.02559,-13.4286 -0.002,-20.1427 -0.07018,-6.5304 -0.12355,-13.0644 -0.555546,-19.5837 -0.462701,-6.4224 -1.265296,-12.8087 -1.669476,-19.2347 -0.510911,-4.8892 -1.077781,-9.7602 -1.255219,-14.6771 -0.496195,-5.3389 -1.299436,-10.6386 -1.918212,-15.9627 -0.813051,-4.5691 -2.017483,-9.0567 -3.333011,-13.5054 -0.947118,-3.9555 -1.856912,-7.9179 -2.707311,-11.8941 0,0 18.688629,-9.91442 18.688629,-9.91442 z"
       inkscape:connector-curvature="0" />
    <path
       style="fill:#2e3436;fill-opacity:1;stroke:none"
       id="path3877"
       d="m -18.987002,994.71503 c 7.201092,0.22802 14.408915,0.26698 21.6134132,0.33482 12.0027038,0.14212 23.9941838,0.10605 35.9876868,-0.37684 9.683674,-0.61544 19.323191,-1.959 28.831717,-3.87766 4.120788,-0.64423 8.150166,-1.63299 12.220918,-2.50348 1.775745,-0.30991 3.630946,-0.41453 5.2828,-1.21719 0.327273,-0.15902 1.210348,-0.80611 0.893916,-0.62648 -5.84941,3.32056 -11.664597,6.70104 -17.496895,10.05156 6.319257,-3.3225 12.326557,-7.32193 18.957773,-9.9675 0.692837,-0.27641 0.591955,1.38901 0.691607,2.12827 0.17937,1.33062 -0.352753,2.66208 -0.516405,3.99473 -0.288911,2.35264 -0.352015,3.44296 -0.54716,5.83789 -0.482913,6.69045 -0.546285,13.40025 -0.637275,20.10455 -0.06544,8.4711 -0.131257,16.9423 -0.183702,25.4136 0.02589,12.2534 -0.63099,24.4912 -0.993102,36.736 -0.289492,10.8221 -0.265394,21.6423 -0.815736,32.4557 -0.950127,10.132 -1.698667,20.2724 -2.090466,30.4413 -0.171826,7.3118 -1.336477,14.5297 -2.168865,21.7793 -0.455003,5.3181 -1.299506,10.5871 -1.751203,15.9058 -0.177079,2.6714 -0.102051,1.3652 -0.228137,3.9183 0,0 -18.701214,9.3979 -18.701214,9.3979 l 0,0 c 0.162767,-2.627 0.06791,-1.2833 0.287937,-4.031 0.524329,-5.3667 1.381093,-10.6853 1.926394,-16.0461 0.834412,-7.2868 2.28326,-14.4935 2.612497,-21.8374 0.472366,-10.1835 1.219337,-20.3474 2.161026,-30.4984 0.577757,-10.8468 0.739764,-21.7004 1.094307,-32.5567 0.476624,-12.1668 1.069976,-24.3377 0.714243,-36.5168 -0.05776,-8.4243 -0.147969,-16.8484 -0.12965,-25.273 0.01542,-6.7204 0.09698,-13.4435 0.456934,-20.1556 0.04233,-0.7294 0.400773,-9.16903 0.627036,-9.42631 0.173623,-0.19742 0.450163,0.27174 0.675244,0.40761 6.084485,-3.37184 12.168971,-6.74369 18.253456,-10.11553 -14.458287,8.51943 -14.060991,10.54472 -25.109532,12.41433 -3.934262,0.8846 -7.910538,1.4879 -11.885084,2.1655 -9.400543,1.5928 -18.897687,2.6801 -28.418283,3.2045 -12.064215,0.4405 -24.1281239,0.4295 -36.199396,0.4367 -7.511789,0.069 -15.026312,0.1124 -22.535072,0.3348 0,0 17.118272,-12.43717 17.118272,-12.43717 z"
       inkscape:connector-curvature="0" />
    <path
       style="fill:#2e3436;fill-opacity:1;stroke:none"
       id="path3883"
       d="m 102.48726,989.06352 c 3.03207,4.34663 6.65014,8.20871 10.35357,11.98128 2.32025,2.7597 5.94049,4.5193 7.49529,7.9072 0.3089,0.6731 0.4798,1.4013 0.7197,2.1019 1.1781,11.3601 0.59526,22.878 0.49565,34.2899 0.22061,14.6983 -0.149,29.3672 -1.50279,44.0049 -1.86514,15.9034 -3.1665,31.8545 -4.23903,47.8291 -0.86279,13.6248 -1.14154,27.2747 -1.10401,40.9236 0,0 -17.674753,8.957 -17.674753,8.957 l 0,0 c 0.633443,-13.7982 1.165685,-27.6008 1.872106,-41.3957 0.871374,-15.8583 1.649817,-31.7306 3.445637,-47.5177 1.58841,-14.6247 2.41532,-29.2981 1.96964,-44.0164 -0.13779,-10.9877 0.0794,-22.0944 -1.57021,-32.9821 -1.36823,-4.1196 -4.664188,-6.2542 -7.556627,-9.329 -3.716121,-3.9152 -7.289324,-7.9565 -10.939122,-11.93246 0,0 18.234949,-10.82152 18.234949,-10.82152 z"
       inkscape:connector-curvature="0" />
  </g>
</svg>
