<?xml version="1.0" encoding="UTF-8" standalone="no"?>
<!-- Created with Inkscape (http://www.inkscape.org/) -->

<svg
   xmlns:dc="http://purl.org/dc/elements/1.1/"
   xmlns:cc="http://creativecommons.org/ns#"
   xmlns:rdf="http://www.w3.org/1999/02/22-rdf-syntax-ns#"
   xmlns:svg="http://www.w3.org/2000/svg"
   xmlns="http://www.w3.org/2000/svg"
   xmlns:sodipodi="http://sodipodi.sourceforge.net/DTD/sodipodi-0.dtd"
   xmlns:inkscape="http://www.inkscape.org/namespaces/inkscape"
   width="744.09448819"
   height="1052.3622047"
   id="svg2"
   version="1.1"
   inkscape:version="0.48.2 r9819"
   sodipodi:docname="icones.svg">
  <defs
     id="defs4" />
  <sodipodi:namedview
     id="base"
     pagecolor="#ffffff"
     bordercolor="#666666"
     borderopacity="1.0"
     inkscape:pageopacity="0.0"
     inkscape:pageshadow="2"
     inkscape:zoom="0.7"
     inkscape:cx="555.29729"
     inkscape:cy="656.60503"
     inkscape:document-units="px"
     inkscape:current-layer="layer1"
     showgrid="false"
     inkscape:window-width="1920"
     inkscape:window-height="1028"
     inkscape:window-x="-32000"
     inkscape:window-y="-32000"
     inkscape:window-maximized="1" />
  <metadata
     id="metadata7">
    <rdf:RDF>
      <cc:Work
         rdf:about="">
        <dc:format>image/svg+xml</dc:format>
        <dc:type
           rdf:resource="http://purl.org/dc/dcmitype/StillImage" />
        <dc:title></dc:title>
      </cc:Work>
    </rdf:RDF>
  </metadata>
  <g
     inkscape:label="Layer 1"
     inkscape:groupmode="layer"
     id="layer1">
    <g
       id="g3818"
       transform="matrix(0.79333505,0,0,0.79333505,-103.17526,48.92195)"
       inkscape:export-filename="C:\wamp\www\registra_requerimento\images\situacao_2.png"
       inkscape:export-xdpi="25.304358"
       inkscape:export-ydpi="25.304358">
      <rect
         y="529.83533"
         x="182.61598"
         height="11.910876"
         width="317.62518"
         id="rect2985"
         style="fill:#ffffff;fill-opacity:1;stroke:#eeeeec;stroke-width:1.95218074;stroke-miterlimit:4;stroke-opacity:1;stroke-dasharray:none" />
      <path
         transform="matrix(0.75359342,0,0,0.75359342,49.71546,133.52955)"
         d="m 212.85714,533.79077 c 0,18.93548 -15.35024,34.28571 -34.28571,34.28571 -18.93548,0 -34.28572,-15.35023 -34.28572,-34.28571 0,-18.93548 15.35024,-34.28571 34.28572,-34.28571 18.93547,0 34.28571,15.35023 34.28571,34.28571 z"
         sodipodi:ry="34.285713"
         sodipodi:rx="34.285713"
         sodipodi:cy="533.79077"
         sodipodi:cx="178.57143"
         id="path3755"
         style="fill:#eeeeec;fill-opacity:1;stroke:#eeeeec;stroke-width:2.65395093;stroke-miterlimit:4;stroke-opacity:1;stroke-dasharray:none"
         sodipodi:type="arc" />
      <path
         sodipodi:type="arc"
         style="fill:#eeeeec;fill-opacity:1;stroke:#eeeeec;stroke-width:2.65395093;stroke-miterlimit:4;stroke-opacity:1;stroke-dasharray:none"
         id="path3757"
         sodipodi:cx="178.57143"
         sodipodi:cy="533.79077"
         sodipodi:rx="34.285713"
         sodipodi:ry="34.285713"
         d="m 212.85714,533.79077 c 0,18.93548 -15.35024,34.28571 -34.28571,34.28571 -18.93548,0 -34.28572,-15.35023 -34.28572,-34.28571 0,-18.93548 15.35024,-34.28571 34.28572,-34.28571 18.93547,0 34.28571,15.35023 34.28571,34.28571 z"
         transform="matrix(0.75359342,0,0,0.75359342,150.38212,133.52955)" />
      <path
         transform="matrix(0.75359342,0,0,0.75359342,251.04879,133.52955)"
         d="m 212.85714,533.79077 c 0,18.93548 -15.35024,34.28571 -34.28571,34.28571 -18.93548,0 -34.28572,-15.35023 -34.28572,-34.28571 0,-18.93548 15.35024,-34.28571 34.28572,-34.28571 18.93547,0 34.28571,15.35023 34.28571,34.28571 z"
         sodipodi:ry="34.285713"
         sodipodi:rx="34.285713"
         sodipodi:cy="533.79077"
         sodipodi:cx="178.57143"
         id="path3759"
         style="fill:#4e9a06;fill-opacity:1;stroke:#eeeeec;stroke-width:2.65395093;stroke-miterlimit:4;stroke-opacity:1;stroke-dasharray:none"
         sodipodi:type="arc" />
      <path
         sodipodi:type="arc"
         style="fill:#eeeeec;fill-opacity:1;stroke:#eeeeec;stroke-width:2.65395093;stroke-miterlimit:4;stroke-opacity:1;stroke-dasharray:none"
         id="path3761"
         sodipodi:cx="178.57143"
         sodipodi:cy="533.79077"
         sodipodi:rx="34.285713"
         sodipodi:ry="34.285713"
         d="m 212.85714,533.79077 c 0,18.93548 -15.35024,34.28571 -34.28571,34.28571 -18.93548,0 -34.28572,-15.35023 -34.28572,-34.28571 0,-18.93548 15.35024,-34.28571 34.28572,-34.28571 18.93547,0 34.28571,15.35023 34.28571,34.28571 z"
         transform="matrix(0.75359342,0,0,0.75359342,351.71545,133.52955)" />
    </g>
    <g
       id="g3811"
       transform="matrix(0.79333505,0,0,0.79333505,-103.17526,66.37532)"
       inkscape:export-filename="C:\wamp\www\registra_requerimento\images\situacao_3.png"
       inkscape:export-xdpi="25.304358"
       inkscape:export-ydpi="25.304358">
      <rect
         style="fill:#ffffff;fill-opacity:1;stroke:#eeeeec;stroke-width:1.95218074;stroke-miterlimit:4;stroke-opacity:1;stroke-dasharray:none"
         id="rect3765"
         width="317.62518"
         height="11.910876"
         x="182.61598"
         y="675.83533" />
      <path
         sodipodi:type="arc"
         style="fill:#eeeeec;fill-opacity:1;stroke:#eeeeec;stroke-width:2.65395093;stroke-miterlimit:4;stroke-opacity:1;stroke-dasharray:none"
         id="path3767"
         sodipodi:cx="178.57143"
         sodipodi:cy="533.79077"
         sodipodi:rx="34.285713"
         sodipodi:ry="34.285713"
         d="m 212.85714,533.79077 c 0,18.93548 -15.35024,34.28571 -34.28571,34.28571 -18.93548,0 -34.28572,-15.35023 -34.28572,-34.28571 0,-18.93548 15.35024,-34.28571 34.28572,-34.28571 18.93547,0 34.28571,15.35023 34.28571,34.28571 z"
         transform="matrix(0.75359342,0,0,0.75359342,49.71546,279.52955)" />
      <path
         transform="matrix(0.75359342,0,0,0.75359342,150.38212,279.52955)"
         d="m 212.85714,533.79077 c 0,18.93548 -15.35024,34.28571 -34.28571,34.28571 -18.93548,0 -34.28572,-15.35023 -34.28572,-34.28571 0,-18.93548 15.35024,-34.28571 34.28572,-34.28571 18.93547,0 34.28571,15.35023 34.28571,34.28571 z"
         sodipodi:ry="34.285713"
         sodipodi:rx="34.285713"
         sodipodi:cy="533.79077"
         sodipodi:cx="178.57143"
         id="path3769"
         style="fill:#eeeeec;fill-opacity:1;stroke:#eeeeec;stroke-width:2.65395093;stroke-miterlimit:4;stroke-opacity:1;stroke-dasharray:none"
         sodipodi:type="arc" />
      <path
         sodipodi:type="arc"
         style="fill:#eeeeec;fill-opacity:1;stroke:#eeeeec;stroke-width:2.65395093;stroke-miterlimit:4;stroke-opacity:1;stroke-dasharray:none"
         id="path3771"
         sodipodi:cx="178.57143"
         sodipodi:cy="533.79077"
         sodipodi:rx="34.285713"
         sodipodi:ry="34.285713"
         d="m 212.85714,533.79077 c 0,18.93548 -15.35024,34.28571 -34.28571,34.28571 -18.93548,0 -34.28572,-15.35023 -34.28572,-34.28571 0,-18.93548 15.35024,-34.28571 34.28572,-34.28571 18.93547,0 34.28571,15.35023 34.28571,34.28571 z"
         transform="matrix(0.75359342,0,0,0.75359342,251.04879,279.52955)" />
      <path
         transform="matrix(0.75359342,0,0,0.75359342,351.71545,279.52955)"
         d="m 212.85714,533.79077 c 0,18.93548 -15.35024,34.28571 -34.28571,34.28571 -18.93548,0 -34.28572,-15.35023 -34.28572,-34.28571 0,-18.93548 15.35024,-34.28571 34.28572,-34.28571 18.93547,0 34.28571,15.35023 34.28571,34.28571 z"
         sodipodi:ry="34.285713"
         sodipodi:rx="34.285713"
         sodipodi:cy="533.79077"
         sodipodi:cx="178.57143"
         id="path3773"
         style="fill:#204a87;fill-opacity:1;stroke:#eeeeec;stroke-width:2.65395093;stroke-miterlimit:4;stroke-opacity:1;stroke-dasharray:none"
         sodipodi:type="arc" />
    </g>
    <g
       id="g3825"
       transform="matrix(0.79333505,0,0,0.79333505,-103.17526,39.40193)"
       inkscape:export-filename="C:\wamp\www\registra_requerimento\images\situacao_1.png"
       inkscape:export-xdpi="25.304358"
       inkscape:export-ydpi="25.304358">
      <rect
         style="fill:#ffffff;fill-opacity:1;stroke:#eeeeec;stroke-width:1.95218074;stroke-miterlimit:4;stroke-opacity:1;stroke-dasharray:none"
         id="rect3775"
         width="317.62518"
         height="11.910876"
         x="182.61598"
         y="377.83533" />
      <path
         sodipodi:type="arc"
         style="fill:#eeeeec;fill-opacity:1;stroke:#eeeeec;stroke-width:2.65395093;stroke-miterlimit:4;stroke-opacity:1;stroke-dasharray:none"
         id="path3777"
         sodipodi:cx="178.57143"
         sodipodi:cy="533.79077"
         sodipodi:rx="34.285713"
         sodipodi:ry="34.285713"
         d="m 212.85714,533.79077 c 0,18.93548 -15.35024,34.28571 -34.28571,34.28571 -18.93548,0 -34.28572,-15.35023 -34.28572,-34.28571 0,-18.93548 15.35024,-34.28571 34.28572,-34.28571 18.93547,0 34.28571,15.35023 34.28571,34.28571 z"
         transform="matrix(0.75359342,0,0,0.75359342,49.71546,-18.47045)" />
      <path
         transform="matrix(0.75359342,0,0,0.75359342,150.38212,-18.47045)"
         d="m 212.85714,533.79077 c 0,18.93548 -15.35024,34.28571 -34.28571,34.28571 -18.93548,0 -34.28572,-15.35023 -34.28572,-34.28571 0,-18.93548 15.35024,-34.28571 34.28572,-34.28571 18.93547,0 34.28571,15.35023 34.28571,34.28571 z"
         sodipodi:ry="34.285713"
         sodipodi:rx="34.285713"
         sodipodi:cy="533.79077"
         sodipodi:cx="178.57143"
         id="path3779"
         style="fill:#edd400;fill-opacity:1;stroke:#eeeeec;stroke-width:2.65395093;stroke-miterlimit:4;stroke-opacity:1;stroke-dasharray:none"
         sodipodi:type="arc" />
      <path
         sodipodi:type="arc"
         style="fill:#eeeeec;fill-opacity:1;stroke:#eeeeec;stroke-width:2.65395093;stroke-miterlimit:4;stroke-opacity:1;stroke-dasharray:none"
         id="path3781"
         sodipodi:cx="178.57143"
         sodipodi:cy="533.79077"
         sodipodi:rx="34.285713"
         sodipodi:ry="34.285713"
         d="m 212.85714,533.79077 c 0,18.93548 -15.35024,34.28571 -34.28571,34.28571 -18.93548,0 -34.28572,-15.35023 -34.28572,-34.28571 0,-18.93548 15.35024,-34.28571 34.28572,-34.28571 18.93547,0 34.28571,15.35023 34.28571,34.28571 z"
         transform="matrix(0.75359342,0,0,0.75359342,251.04879,-18.47045)" />
      <path
         transform="matrix(0.75359342,0,0,0.75359342,351.71545,-18.47045)"
         d="m 212.85714,533.79077 c 0,18.93548 -15.35024,34.28571 -34.28571,34.28571 -18.93548,0 -34.28572,-15.35023 -34.28572,-34.28571 0,-18.93548 15.35024,-34.28571 34.28572,-34.28571 18.93547,0 34.28571,15.35023 34.28571,34.28571 z"
         sodipodi:ry="34.285713"
         sodipodi:rx="34.285713"
         sodipodi:cy="533.79077"
         sodipodi:cx="178.57143"
         id="path3783"
         style="fill:#eeeeec;fill-opacity:1;stroke:#eeeeec;stroke-width:2.65395093;stroke-miterlimit:4;stroke-opacity:1;stroke-dasharray:none"
         sodipodi:type="arc" />
    </g>
    <g
       id="g3832"
       inkscape:export-filename="C:\wamp\www\registra_requerimento\images\situacao_0.png"
       inkscape:export-xdpi="25.304358"
       inkscape:export-ydpi="25.304358"
       transform="matrix(0.79333505,0,0,0.79333505,-103.17526,15.60188)">
      <rect
         y="237.83533"
         x="182.61598"
         height="11.910876"
         width="317.62518"
         id="rect3785"
         style="fill:#ffffff;fill-opacity:1;stroke:#eeeeec;stroke-width:1.95218074;stroke-miterlimit:4;stroke-opacity:1;stroke-dasharray:none" />
      <path
         transform="matrix(0.75359342,0,0,0.75359342,49.71546,-158.47045)"
         d="m 212.85714,533.79077 c 0,18.93548 -15.35024,34.28571 -34.28571,34.28571 -18.93548,0 -34.28572,-15.35023 -34.28572,-34.28571 0,-18.93548 15.35024,-34.28571 34.28572,-34.28571 18.93547,0 34.28571,15.35023 34.28571,34.28571 z"
         sodipodi:ry="34.285713"
         sodipodi:rx="34.285713"
         sodipodi:cy="533.79077"
         sodipodi:cx="178.57143"
         id="path3787"
         style="fill:#cc0000;fill-opacity:1;stroke:#eeeeec;stroke-width:2.65395093;stroke-miterlimit:4;stroke-opacity:1;stroke-dasharray:none"
         sodipodi:type="arc" />
      <path
         sodipodi:type="arc"
         style="fill:#eeeeec;fill-opacity:1;stroke:#eeeeec;stroke-width:2.65395093;stroke-miterlimit:4;stroke-opacity:1;stroke-dasharray:none"
         id="path3789"
         sodipodi:cx="178.57143"
         sodipodi:cy="533.79077"
         sodipodi:rx="34.285713"
         sodipodi:ry="34.285713"
         d="m 212.85714,533.79077 c 0,18.93548 -15.35024,34.28571 -34.28571,34.28571 -18.93548,0 -34.28572,-15.35023 -34.28572,-34.28571 0,-18.93548 15.35024,-34.28571 34.28572,-34.28571 18.93547,0 34.28571,15.35023 34.28571,34.28571 z"
         transform="matrix(0.75359342,0,0,0.75359342,150.38212,-158.47045)" />
      <path
         transform="matrix(0.75359342,0,0,0.75359342,251.04879,-158.47045)"
         d="m 212.85714,533.79077 c 0,18.93548 -15.35024,34.28571 -34.28571,34.28571 -18.93548,0 -34.28572,-15.35023 -34.28572,-34.28571 0,-18.93548 15.35024,-34.28571 34.28572,-34.28571 18.93547,0 34.28571,15.35023 34.28571,34.28571 z"
         sodipodi:ry="34.285713"
         sodipodi:rx="34.285713"
         sodipodi:cy="533.79077"
         sodipodi:cx="178.57143"
         id="path3791"
         style="fill:#eeeeec;fill-opacity:1;stroke:#eeeeec;stroke-width:2.65395093;stroke-miterlimit:4;stroke-opacity:1;stroke-dasharray:none"
         sodipodi:type="arc" />
      <path
         sodipodi:type="arc"
         style="fill:#eeeeec;fill-opacity:1;stroke:#eeeeec;stroke-width:2.65395093;stroke-miterlimit:4;stroke-opacity:1;stroke-dasharray:none"
         id="path3793"
         sodipodi:cx="178.57143"
         sodipodi:cy="533.79077"
         sodipodi:rx="34.285713"
         sodipodi:ry="34.285713"
         d="m 212.85714,533.79077 c 0,18.93548 -15.35024,34.28571 -34.28571,34.28571 -18.93548,0 -34.28572,-15.35023 -34.28572,-34.28571 0,-18.93548 15.35024,-34.28571 34.28572,-34.28571 18.93547,0 34.28571,15.35023 34.28571,34.28571 z"
         transform="matrix(0.75359342,0,0,0.75359342,351.71545,-158.47045)" />
    </g>
    <text
       xml:space="preserve"
       style="font-size:31.73340225px;font-style:normal;font-weight:normal;line-height:125%;letter-spacing:0px;word-spacing:0px;fill:#2e3436;fill-opacity:1;stroke:none;font-family:Sans"
       x="77.449913"
       y="175.68954"
       id="text3795"
       sodipodi:linespacing="125%"
       inkscape:export-filename="C:\wamp\www\registra_requerimento\images\situacao_0.png"
       inkscape:export-xdpi="25.304358"
       inkscape:export-ydpi="25.304358"><tspan
         sodipodi:role="line"
         id="tspan3797"
         x="77.449913"
         y="175.68954"
         style="font-size:31.73340225px;font-style:normal;font-variant:normal;font-weight:bold;font-stretch:normal;text-align:start;line-height:125%;writing-mode:lr-tb;text-anchor:start;fill:#2e3436;font-family:Kartika;-inkscape-font-specification:Kartika Bold">Em análise</tspan></text>
    <text
       sodipodi:linespacing="125%"
       id="text3799"
       y="310.55652"
       x="88.063858"
       style="font-size:31.73340225px;font-style:normal;font-weight:normal;line-height:125%;letter-spacing:0px;word-spacing:0px;fill:#2e3436;fill-opacity:1;stroke:none;font-family:Sans"
       xml:space="preserve"
       inkscape:export-filename="C:\wamp\www\registra_requerimento\images\situacao_1.png"
       inkscape:export-xdpi="25.304358"
       inkscape:export-ydpi="25.304358"><tspan
         style="font-size:31.73340225px;font-style:normal;font-variant:normal;font-weight:bold;font-stretch:normal;text-align:start;line-height:125%;writing-mode:lr-tb;text-anchor:start;fill:#2e3436;font-family:Kartika;-inkscape-font-specification:Kartika Bold"
         y="310.55652"
         x="88.063858"
         id="tspan3801"
         sodipodi:role="line">Analisado</tspan></text>
    <text
       xml:space="preserve"
       style="font-size:31.73340225px;font-style:normal;font-weight:normal;line-height:125%;letter-spacing:0px;word-spacing:0px;fill:#2e3436;fill-opacity:1;stroke:none;font-family:Sans"
       x="70.508217"
       y="447.01013"
       id="text3803"
       sodipodi:linespacing="125%"
       inkscape:export-filename="C:\wamp\www\registra_requerimento\images\situacao_2.png"
       inkscape:export-xdpi="25.304358"
       inkscape:export-ydpi="25.304358"><tspan
         sodipodi:role="line"
         id="tspan3805"
         x="70.508217"
         y="447.01013"
         style="font-size:31.73340225px;font-style:normal;font-variant:normal;font-weight:bold;font-stretch:normal;text-align:start;line-height:125%;writing-mode:lr-tb;text-anchor:start;fill:#2e3436;font-family:Kartika;-inkscape-font-specification:Kartika Bold">Protocolado</tspan></text>
    <text
       sodipodi:linespacing="125%"
       id="text3807"
       y="575.53046"
       x="86.250969"
       style="font-size:31.73340225px;font-style:normal;font-weight:normal;line-height:125%;letter-spacing:0px;word-spacing:0px;fill:#2e3436;fill-opacity:1;stroke:none;font-family:Sans"
       xml:space="preserve"
       inkscape:export-filename="C:\wamp\www\registra_requerimento\images\situacao_3.png"
       inkscape:export-xdpi="25.304358"
       inkscape:export-ydpi="25.304358"><tspan
         style="font-size:31.73340225px;font-style:normal;font-variant:normal;font-weight:bold;font-stretch:normal;text-align:start;line-height:125%;writing-mode:lr-tb;text-anchor:start;fill:#2e3436;font-family:Kartika;-inkscape-font-specification:Kartika Bold"
         y="575.53046"
         x="86.250969"
         id="tspan3809"
         sodipodi:role="line">Concluído</tspan></text>
    <path
       sodipodi:type="star"
       style="fill:#73d216;fill-opacity:1;stroke:#beef8e;stroke-width:5;stroke-linecap:round;stroke-linejoin:round;stroke-miterlimit:4;stroke-opacity:1;stroke-dasharray:none"
       id="path3841"
       sodipodi:sides="3"
       sodipodi:cx="422.85715"
       sodipodi:cy="879.50507"
       sodipodi:r1="45.714287"
       sodipodi:r2="22.857143"
       sodipodi:arg1="3.1415927"
       sodipodi:arg2="4.1887902"
       inkscape:flatsided="false"
       inkscape:rounded="0"
       inkscape:randomized="0"
       d="m 377.14286,879.50506 34.28572,-19.79486 34.28571,-19.79487 0,39.58974 0,39.58973 -34.28571,-19.79487 z"
       inkscape:transform-center-x="9.0666848"
       transform="matrix(0.79333505,0,0,0.79333505,-70.148327,155.6383)"
       inkscape:export-filename="C:\wamp\www\registra_requerimento\images\retornar_situacao.png"
       inkscape:export-xdpi="21.382683"
       inkscape:export-ydpi="21.382683" />
    <path
       transform="matrix(-0.79333505,0,0,0.79333505,650.65324,155.6383)"
       inkscape:transform-center-x="-9.0666893"
       d="m 377.14286,879.50506 34.28572,-19.79486 34.28571,-19.79487 0,39.58974 0,39.58973 -34.28571,-19.79487 z"
       inkscape:randomized="0"
       inkscape:rounded="0"
       inkscape:flatsided="false"
       sodipodi:arg2="4.1887902"
       sodipodi:arg1="3.1415927"
       sodipodi:r2="22.857143"
       sodipodi:r1="45.714287"
       sodipodi:cy="879.50507"
       sodipodi:cx="422.85715"
       sodipodi:sides="3"
       id="path3843"
       style="fill:#73d216;fill-opacity:1;stroke:#beef8e;stroke-width:5;stroke-linecap:round;stroke-linejoin:round;stroke-miterlimit:4;stroke-opacity:1;stroke-dasharray:none"
       sodipodi:type="star"
       inkscape:export-filename="C:\wamp\www\registra_requerimento\images\avancar_situacao.png"
       inkscape:export-xdpi="21.382683"
       inkscape:export-ydpi="21.382683" />
    <path
       inkscape:export-ydpi="21.382683"
       inkscape:export-xdpi="21.382683"
       inkscape:export-filename="C:\wamp\www\registra_requerimento\images\retornar_situacao_d.png"
       transform="matrix(0.79333505,0,0,0.79333505,-260.54874,155.6383)"
       inkscape:transform-center-x="9.0666836"
       d="m 377.14286,879.50506 34.28572,-19.79486 34.28571,-19.79487 0,39.58974 0,39.58973 -34.28571,-19.79487 z"
       inkscape:randomized="0"
       inkscape:rounded="0"
       inkscape:flatsided="false"
       sodipodi:arg2="4.1887902"
       sodipodi:arg1="3.1415927"
       sodipodi:r2="22.857143"
       sodipodi:r1="45.714287"
       sodipodi:cy="879.50507"
       sodipodi:cx="422.85715"
       sodipodi:sides="3"
       id="path3845"
       style="fill:#babdb6;fill-opacity:1;stroke:#d3d7cf;stroke-width:5;stroke-linecap:round;stroke-linejoin:round;stroke-miterlimit:4;stroke-opacity:1;stroke-dasharray:none"
       sodipodi:type="star" />
    <path
       inkscape:export-ydpi="21.382683"
       inkscape:export-xdpi="21.382683"
       inkscape:export-filename="C:\wamp\www\registra_requerimento\images\avancar_situacao_d.png"
       sodipodi:type="star"
       style="fill:#babdb6;fill-opacity:1;stroke:#d3d7cf;stroke-width:5;stroke-linecap:round;stroke-linejoin:round;stroke-miterlimit:4;stroke-opacity:1;stroke-dasharray:none"
       id="path3847"
       sodipodi:sides="3"
       sodipodi:cx="422.85715"
       sodipodi:cy="879.50507"
       sodipodi:r1="45.714287"
       sodipodi:r2="22.857143"
       sodipodi:arg1="3.1415927"
       sodipodi:arg2="4.1887902"
       inkscape:flatsided="false"
       inkscape:rounded="0"
       inkscape:randomized="0"
       d="m 377.14286,879.50506 34.28572,-19.79486 34.28571,-19.79487 0,39.58974 0,39.58973 -34.28571,-19.79487 z"
       inkscape:transform-center-x="-9.0666805"
       transform="matrix(-0.79333505,0,0,0.79333505,460.25282,155.6383)" />
    <text
       inkscape:export-ydpi="27.873507"
       inkscape:export-xdpi="27.873507"
       inkscape:export-filename="C:\wamp\www\registra_requerimento\images\situacao_0.png"
       sodipodi:linespacing="125%"
       id="text3046"
       y="95.689507"
       x="482.38403"
       style="font-size:31.73340225px;font-style:normal;font-weight:normal;line-height:125%;letter-spacing:0px;word-spacing:0px;fill:#2e3436;fill-opacity:1;stroke:none;font-family:Sans"
       xml:space="preserve"><tspan
         style="font-size:31.73340225px;font-style:normal;font-variant:normal;font-weight:bold;font-stretch:normal;text-align:start;line-height:125%;writing-mode:lr-tb;text-anchor:start;fill:#2e3436;font-family:Kartika;-inkscape-font-specification:Kartika Bold"
         y="95.689507"
         x="482.38403"
         id="tspan3048"
         sodipodi:role="line">Em análise</tspan></text>
    <text
       xml:space="preserve"
       style="font-size:31.73340225px;font-style:normal;font-weight:normal;line-height:125%;letter-spacing:0px;word-spacing:0px;fill:#2e3436;fill-opacity:1;stroke:none;font-family:Sans"
       x="492.99799"
       y="250.63724"
       id="text3067"
       sodipodi:linespacing="125%"
       inkscape:export-filename="C:\wamp\www\registra_requerimento\images\situacao_1.png"
       inkscape:export-xdpi="28.796671"
       inkscape:export-ydpi="28.796671"><tspan
         sodipodi:role="line"
         id="tspan3069"
         x="492.99799"
         y="250.63724"
         style="font-size:31.73340225px;font-style:normal;font-variant:normal;font-weight:bold;font-stretch:normal;text-align:start;line-height:125%;writing-mode:lr-tb;text-anchor:start;fill:#2e3436;font-family:Kartika;-inkscape-font-specification:Kartika Bold">Analisado</tspan></text>
    <path
       sodipodi:type="arc"
       style="fill:#d3d7cf;fill-opacity:1;stroke:#eeeeec;stroke-width:2.65395093;stroke-miterlimit:4;stroke-opacity:1;stroke-dasharray:none"
       id="path3059"
       sodipodi:cx="178.57143"
       sodipodi:cy="533.79077"
       sodipodi:rx="34.285713"
       sodipodi:ry="34.285713"
       d="m 212.85714,533.79077 a 34.285713,34.285713 0 1 1 -68.57143,0 34.285713,34.285713 0 1 1 68.57143,0 z"
       transform="matrix(0.59785207,0,0,0.59785207,361.19989,-35.170587)"
       inkscape:export-filename="C:\wamp\www\registra_requerimento\images\situacao_1.png"
       inkscape:export-xdpi="28.796671"
       inkscape:export-ydpi="28.796671" />
    <path
       transform="matrix(0.59785207,0,0,0.59785207,411.09671,-35.170587)"
       d="m 212.85714,533.79077 a 34.285713,34.285713 0 1 1 -68.57143,0 34.285713,34.285713 0 1 1 68.57143,0 z"
       sodipodi:ry="34.285713"
       sodipodi:rx="34.285713"
       sodipodi:cy="533.79077"
       sodipodi:cx="178.57143"
       id="path3061"
       style="fill:#edd400;fill-opacity:1;stroke:#eeeeec;stroke-width:2.65395093;stroke-miterlimit:4;stroke-opacity:1;stroke-dasharray:none"
       sodipodi:type="arc"
       inkscape:export-filename="C:\wamp\www\registra_requerimento\images\situacao_1.png"
       inkscape:export-xdpi="28.796671"
       inkscape:export-ydpi="28.796671" />
    <path
       sodipodi:type="arc"
       style="fill:#d3d7cf;fill-opacity:1;stroke:#eeeeec;stroke-width:2.65395093;stroke-miterlimit:4;stroke-opacity:1;stroke-dasharray:none"
       id="path3063"
       sodipodi:cx="178.57143"
       sodipodi:cy="533.79077"
       sodipodi:rx="34.285713"
       sodipodi:ry="34.285713"
       d="m 212.85714,533.79077 a 34.285713,34.285713 0 1 1 -68.57143,0 34.285713,34.285713 0 1 1 68.57143,0 z"
       transform="matrix(0.59785207,0,0,0.59785207,460.99353,-35.170587)"
       inkscape:export-filename="C:\wamp\www\registra_requerimento\images\situacao_1.png"
       inkscape:export-xdpi="28.796671"
       inkscape:export-ydpi="28.796671" />
    <path
       transform="matrix(0.59785207,0,0,0.59785207,560.78706,-35.170587)"
       d="m 212.85714,533.79077 a 34.285713,34.285713 0 1 1 -68.57143,0 34.285713,34.285713 0 1 1 68.57143,0 z"
       sodipodi:ry="34.285713"
       sodipodi:rx="34.285713"
       sodipodi:cy="533.79077"
       sodipodi:cx="178.57143"
       id="path3065"
       style="fill:#d3d7cf;fill-opacity:1;stroke:#eeeeec;stroke-width:2.65395093;stroke-miterlimit:4;stroke-opacity:1;stroke-dasharray:none"
       sodipodi:type="arc"
       inkscape:export-filename="C:\wamp\www\registra_requerimento\images\situacao_1.png"
       inkscape:export-xdpi="28.796671"
       inkscape:export-ydpi="28.796671" />
    <path
       transform="matrix(0.59785207,0,0,0.59785207,510.89031,-35.170587)"
       d="m 212.85714,533.79077 a 34.285713,34.285713 0 1 1 -68.57143,0 34.285713,34.285713 0 1 1 68.57143,0 z"
       sodipodi:ry="34.285713"
       sodipodi:rx="34.285713"
       sodipodi:cy="533.79077"
       sodipodi:cx="178.57143"
       id="path3071"
       style="fill:#d3d7cf;fill-opacity:1;stroke:#eeeeec;stroke-width:2.65395093;stroke-miterlimit:4;stroke-opacity:1;stroke-dasharray:none"
       sodipodi:type="arc"
       inkscape:export-filename="C:\wamp\www\registra_requerimento\images\situacao_1.png"
       inkscape:export-xdpi="28.796671"
       inkscape:export-ydpi="28.796671" />
    <text
       inkscape:export-ydpi="28.796694"
       inkscape:export-xdpi="28.796694"
       inkscape:export-filename="C:\wamp\www\registra_requerimento\images\situacao_2.png"
       sodipodi:linespacing="125%"
       id="text3083"
       y="405.58496"
       x="475.44235"
       style="font-size:31.73340225px;font-style:normal;font-weight:normal;line-height:125%;letter-spacing:0px;word-spacing:0px;fill:#2e3436;fill-opacity:1;stroke:none;font-family:Sans"
       xml:space="preserve"><tspan
         style="font-size:31.73340225px;font-style:normal;font-variant:normal;font-weight:bold;font-stretch:normal;text-align:start;line-height:125%;writing-mode:lr-tb;text-anchor:start;fill:#2e3436;font-family:Kartika;-inkscape-font-specification:Kartika Bold"
         y="405.58496"
         x="475.44235"
         sodipodi:role="line"
         id="tspan3121">Protocolado</tspan></text>
    <path
       transform="matrix(0.59785207,0,0,0.59785207,361.19989,119.77714)"
       d="m 212.85714,533.79077 a 34.285713,34.285713 0 1 1 -68.57143,0 34.285713,34.285713 0 1 1 68.57143,0 z"
       sodipodi:ry="34.285713"
       sodipodi:rx="34.285713"
       sodipodi:cy="533.79077"
       sodipodi:cx="178.57143"
       id="path3075"
       style="fill:#d3d7cf;fill-opacity:1;stroke:#eeeeec;stroke-width:2.65395093;stroke-miterlimit:4;stroke-opacity:1;stroke-dasharray:none"
       sodipodi:type="arc"
       inkscape:export-filename="C:\wamp\www\registra_requerimento\images\situacao_2.png"
       inkscape:export-xdpi="28.796694"
       inkscape:export-ydpi="28.796694" />
    <path
       sodipodi:type="arc"
       style="fill:#d3d7cf;fill-opacity:1;stroke:#eeeeec;stroke-width:2.65395093;stroke-miterlimit:4;stroke-opacity:1;stroke-dasharray:none"
       id="path3077"
       sodipodi:cx="178.57143"
       sodipodi:cy="533.79077"
       sodipodi:rx="34.285713"
       sodipodi:ry="34.285713"
       d="m 212.85714,533.79077 a 34.285713,34.285713 0 1 1 -68.57143,0 34.285713,34.285713 0 1 1 68.57143,0 z"
       transform="matrix(0.59785207,0,0,0.59785207,411.09671,119.77714)"
       inkscape:export-filename="C:\wamp\www\registra_requerimento\images\situacao_2.png"
       inkscape:export-xdpi="28.796694"
       inkscape:export-ydpi="28.796694" />
    <path
       transform="matrix(0.59785207,0,0,0.59785207,460.99353,119.77714)"
       d="m 212.85714,533.79077 a 34.285713,34.285713 0 1 1 -68.57143,0 34.285713,34.285713 0 1 1 68.57143,0 z"
       sodipodi:ry="34.285713"
       sodipodi:rx="34.285713"
       sodipodi:cy="533.79077"
       sodipodi:cx="178.57143"
       id="path3079"
       style="fill:#4e9a06;fill-opacity:1;stroke:#eeeeec;stroke-width:2.65395093;stroke-miterlimit:4;stroke-opacity:1;stroke-dasharray:none"
       sodipodi:type="arc"
       inkscape:export-filename="C:\wamp\www\registra_requerimento\images\situacao_2.png"
       inkscape:export-xdpi="28.796694"
       inkscape:export-ydpi="28.796694" />
    <path
       sodipodi:type="arc"
       style="fill:#d3d7cf;fill-opacity:1;stroke:#eeeeec;stroke-width:2.65395093;stroke-miterlimit:4;stroke-opacity:1;stroke-dasharray:none"
       id="path3081"
       sodipodi:cx="178.57143"
       sodipodi:cy="533.79077"
       sodipodi:rx="34.285713"
       sodipodi:ry="34.285713"
       d="m 212.85714,533.79077 a 34.285713,34.285713 0 1 1 -68.57143,0 34.285713,34.285713 0 1 1 68.57143,0 z"
       transform="matrix(0.59785207,0,0,0.59785207,560.78706,119.77714)"
       inkscape:export-filename="C:\wamp\www\registra_requerimento\images\situacao_2.png"
       inkscape:export-xdpi="28.796694"
       inkscape:export-ydpi="28.796694" />
    <path
       sodipodi:type="arc"
       style="fill:#d3d7cf;fill-opacity:1;stroke:#eeeeec;stroke-width:2.65395093;stroke-miterlimit:4;stroke-opacity:1;stroke-dasharray:none"
       id="path3087"
       sodipodi:cx="178.57143"
       sodipodi:cy="533.79077"
       sodipodi:rx="34.285713"
       sodipodi:ry="34.285713"
       d="m 212.85714,533.79077 a 34.285713,34.285713 0 1 1 -68.57143,0 34.285713,34.285713 0 1 1 68.57143,0 z"
       transform="matrix(0.59785207,0,0,0.59785207,510.89031,119.77714)"
       inkscape:export-filename="C:\wamp\www\registra_requerimento\images\situacao_2.png"
       inkscape:export-xdpi="28.796694"
       inkscape:export-ydpi="28.796694" />
    <text
       xml:space="preserve"
       style="font-size:31.73340225px;font-style:normal;font-weight:normal;line-height:125%;letter-spacing:0px;word-spacing:0px;fill:#2e3436;fill-opacity:1;stroke:none;font-family:Sans"
       x="503.94507"
       y="560.53271"
       id="text3099"
       sodipodi:linespacing="125%"
       inkscape:export-filename="C:\wamp\www\registra_requerimento\images\situacao_3.png"
       inkscape:export-xdpi="28.796694"
       inkscape:export-ydpi="28.796694"><tspan
         sodipodi:role="line"
         id="tspan3101"
         x="503.94507"
         y="560.53271"
         style="font-size:31.73340225px;font-style:normal;font-variant:normal;font-weight:bold;font-stretch:normal;text-align:start;line-height:125%;writing-mode:lr-tb;text-anchor:start;fill:#2e3436;font-family:Kartika;-inkscape-font-specification:Kartika Bold">Verificar</tspan></text>
    <path
       sodipodi:type="arc"
       style="fill:#d3d7cf;fill-opacity:1;stroke:#eeeeec;stroke-width:2.65395093;stroke-miterlimit:4;stroke-opacity:1;stroke-dasharray:none"
       id="path3091"
       sodipodi:cx="178.57143"
       sodipodi:cy="533.79077"
       sodipodi:rx="34.285713"
       sodipodi:ry="34.285713"
       d="m 212.85714,533.79077 a 34.285713,34.285713 0 1 1 -68.57143,0 34.285713,34.285713 0 1 1 68.57143,0 z"
       transform="matrix(0.59785207,0,0,0.59785207,361.19989,274.72486)"
       inkscape:export-filename="C:\wamp\www\registra_requerimento\images\situacao_3.png"
       inkscape:export-xdpi="28.796694"
       inkscape:export-ydpi="28.796694" />
    <path
       transform="matrix(0.59785207,0,0,0.59785207,411.09671,274.72486)"
       d="m 212.85714,533.79077 a 34.285713,34.285713 0 1 1 -68.57143,0 34.285713,34.285713 0 1 1 68.57143,0 z"
       sodipodi:ry="34.285713"
       sodipodi:rx="34.285713"
       sodipodi:cy="533.79077"
       sodipodi:cx="178.57143"
       id="path3093"
       style="fill:#d3d7cf;fill-opacity:1;stroke:#eeeeec;stroke-width:2.65395093;stroke-miterlimit:4;stroke-opacity:1;stroke-dasharray:none"
       sodipodi:type="arc"
       inkscape:export-filename="C:\wamp\www\registra_requerimento\images\situacao_3.png"
       inkscape:export-xdpi="28.796694"
       inkscape:export-ydpi="28.796694" />
    <path
       sodipodi:type="arc"
       style="fill:#d3d7cf;fill-opacity:1;stroke:#eeeeec;stroke-width:2.65395093;stroke-miterlimit:4;stroke-opacity:1;stroke-dasharray:none"
       id="path3095"
       sodipodi:cx="178.57143"
       sodipodi:cy="533.79077"
       sodipodi:rx="34.285713"
       sodipodi:ry="34.285713"
       d="m 212.85714,533.79077 a 34.285713,34.285713 0 1 1 -68.57143,0 34.285713,34.285713 0 1 1 68.57143,0 z"
       transform="matrix(0.59785207,0,0,0.59785207,460.99353,274.72486)"
       inkscape:export-filename="C:\wamp\www\registra_requerimento\images\situacao_3.png"
       inkscape:export-xdpi="28.796694"
       inkscape:export-ydpi="28.796694" />
    <path
       transform="matrix(0.59785207,0,0,0.59785207,560.78706,274.72486)"
       d="m 212.85714,533.79077 a 34.285713,34.285713 0 1 1 -68.57143,0 34.285713,34.285713 0 1 1 68.57143,0 z"
       sodipodi:ry="34.285713"
       sodipodi:rx="34.285713"
       sodipodi:cy="533.79077"
       sodipodi:cx="178.57143"
       id="path3097"
       style="fill:#d3d7cf;fill-opacity:1;stroke:#eeeeec;stroke-width:2.65395093;stroke-miterlimit:4;stroke-opacity:1;stroke-dasharray:none"
       sodipodi:type="arc"
       inkscape:export-filename="C:\wamp\www\registra_requerimento\images\situacao_3.png"
       inkscape:export-xdpi="28.796694"
       inkscape:export-ydpi="28.796694" />
    <path
       transform="matrix(0.59785207,0,0,0.59785207,510.89031,274.72486)"
       d="m 212.85714,533.79077 a 34.285713,34.285713 0 1 1 -68.57143,0 34.285713,34.285713 0 1 1 68.57143,0 z"
       sodipodi:ry="34.285713"
       sodipodi:rx="34.285713"
       sodipodi:cy="533.79077"
       sodipodi:cx="178.57143"
       id="path3103"
       style="fill:#75507b;fill-opacity:1;stroke:#eeeeec;stroke-width:2.65395093;stroke-miterlimit:4;stroke-opacity:1;stroke-dasharray:none"
       sodipodi:type="arc"
       inkscape:export-filename="C:\wamp\www\registra_requerimento\images\situacao_3.png"
       inkscape:export-xdpi="28.796694"
       inkscape:export-ydpi="28.796694" />
    <text
       inkscape:export-ydpi="28.643312"
       inkscape:export-xdpi="28.643312"
       inkscape:export-filename="C:\wamp\www\registra_requerimento\images\situacao_4.png"
       sodipodi:linespacing="125%"
       id="text3115"
       y="715.68958"
       x="491.18509"
       style="font-size:31.73340225px;font-style:normal;font-weight:normal;line-height:125%;letter-spacing:0px;word-spacing:0px;fill:#2e3436;fill-opacity:1;stroke:none;font-family:Sans"
       xml:space="preserve"><tspan
         style="font-size:31.73340225px;font-style:normal;font-variant:normal;font-weight:bold;font-stretch:normal;text-align:start;line-height:125%;writing-mode:lr-tb;text-anchor:start;fill:#2e3436;font-family:Kartika;-inkscape-font-specification:Kartika Bold"
         y="715.68958"
         x="491.18509"
         id="tspan3117"
         sodipodi:role="line">Concluído</tspan></text>
    <path
       transform="matrix(0.59785207,0,0,0.59785207,361.19989,429.88172)"
       d="m 212.85714,533.79077 a 34.285713,34.285713 0 1 1 -68.57143,0 34.285713,34.285713 0 1 1 68.57143,0 z"
       sodipodi:ry="34.285713"
       sodipodi:rx="34.285713"
       sodipodi:cy="533.79077"
       sodipodi:cx="178.57143"
       id="path3107"
       style="fill:#d3d7cf;fill-opacity:1;stroke:#eeeeec;stroke-width:2.65395093;stroke-miterlimit:4;stroke-opacity:1;stroke-dasharray:none"
       sodipodi:type="arc"
       inkscape:export-filename="C:\wamp\www\registra_requerimento\images\situacao_4.png"
       inkscape:export-xdpi="28.643312"
       inkscape:export-ydpi="28.643312" />
    <path
       sodipodi:type="arc"
       style="fill:#d3d7cf;fill-opacity:1;stroke:#eeeeec;stroke-width:2.65395093;stroke-miterlimit:4;stroke-opacity:1;stroke-dasharray:none"
       id="path3109"
       sodipodi:cx="178.57143"
       sodipodi:cy="533.79077"
       sodipodi:rx="34.285713"
       sodipodi:ry="34.285713"
       d="m 212.85714,533.79077 a 34.285713,34.285713 0 1 1 -68.57143,0 34.285713,34.285713 0 1 1 68.57143,0 z"
       transform="matrix(0.59785207,0,0,0.59785207,411.09671,429.88172)"
       inkscape:export-filename="C:\wamp\www\registra_requerimento\images\situacao_4.png"
       inkscape:export-xdpi="28.643312"
       inkscape:export-ydpi="28.643312" />
    <path
       transform="matrix(0.59785207,0,0,0.59785207,460.99353,429.88172)"
       d="m 212.85714,533.79077 a 34.285713,34.285713 0 1 1 -68.57143,0 34.285713,34.285713 0 1 1 68.57143,0 z"
       sodipodi:ry="34.285713"
       sodipodi:rx="34.285713"
       sodipodi:cy="533.79077"
       sodipodi:cx="178.57143"
       id="path3111"
       style="fill:#d3d7cf;fill-opacity:1;stroke:#eeeeec;stroke-width:2.65395093;stroke-miterlimit:4;stroke-opacity:1;stroke-dasharray:none"
       sodipodi:type="arc"
       inkscape:export-filename="C:\wamp\www\registra_requerimento\images\situacao_4.png"
       inkscape:export-xdpi="28.643312"
       inkscape:export-ydpi="28.643312" />
    <path
       sodipodi:type="arc"
       style="fill:#204a87;fill-opacity:1;stroke:#eeeeec;stroke-width:2.65395093;stroke-miterlimit:4;stroke-opacity:1;stroke-dasharray:none"
       id="path3113"
       sodipodi:cx="178.57143"
       sodipodi:cy="533.79077"
       sodipodi:rx="34.285713"
       sodipodi:ry="34.285713"
       d="m 212.85714,533.79077 a 34.285713,34.285713 0 1 1 -68.57143,0 34.285713,34.285713 0 1 1 68.57143,0 z"
       transform="matrix(0.59785207,0,0,0.59785207,560.78706,429.88172)"
       inkscape:export-filename="C:\wamp\www\registra_requerimento\images\situacao_4.png"
       inkscape:export-xdpi="28.643312"
       inkscape:export-ydpi="28.643312" />
    <path
       sodipodi:type="arc"
       style="fill:#d3d7cf;fill-opacity:1;stroke:#eeeeec;stroke-width:2.65395093;stroke-miterlimit:4;stroke-opacity:1;stroke-dasharray:none"
       id="path3119"
       sodipodi:cx="178.57143"
       sodipodi:cy="533.79077"
       sodipodi:rx="34.285713"
       sodipodi:ry="34.285713"
       d="m 212.85714,533.79077 a 34.285713,34.285713 0 1 1 -68.57143,0 34.285713,34.285713 0 1 1 68.57143,0 z"
       transform="matrix(0.59785207,0,0,0.59785207,510.89031,429.88172)"
       inkscape:export-filename="C:\wamp\www\registra_requerimento\images\situacao_4.png"
       inkscape:export-xdpi="28.643312"
       inkscape:export-ydpi="28.643312" />
    <path
       transform="matrix(0.59785207,0,0,0.59785207,361.19989,-195.17059)"
       d="m 212.85714,533.79077 a 34.285713,34.285713 0 1 1 -68.57143,0 34.285713,34.285713 0 1 1 68.57143,0 z"
       sodipodi:ry="34.285713"
       sodipodi:rx="34.285713"
       sodipodi:cy="533.79077"
       sodipodi:cx="178.57143"
       id="path3306"
       style="fill:#cc0000;fill-opacity:1;stroke:#eeeeec;stroke-width:2.65395093000000020;stroke-miterlimit:4;stroke-opacity:1;stroke-dasharray:none"
       sodipodi:type="arc"
       inkscape:export-filename="C:\wamp\www\registra_requerimento\images\situacao_0.png"
       inkscape:export-xdpi="27.873507"
       inkscape:export-ydpi="27.873507" />
    <path
       sodipodi:type="arc"
       style="fill:#d3d7cf;fill-opacity:1;stroke:#eeeeec;stroke-width:2.65395093000000020;stroke-miterlimit:4;stroke-opacity:1;stroke-dasharray:none"
       id="path3308"
       sodipodi:cx="178.57143"
       sodipodi:cy="533.79077"
       sodipodi:rx="34.285713"
       sodipodi:ry="34.285713"
       d="m 212.85714,533.79077 a 34.285713,34.285713 0 1 1 -68.57143,0 34.285713,34.285713 0 1 1 68.57143,0 z"
       transform="matrix(0.59785207,0,0,0.59785207,411.09671,-195.17059)"
       inkscape:export-filename="C:\wamp\www\registra_requerimento\images\situacao_0.png"
       inkscape:export-xdpi="27.873507"
       inkscape:export-ydpi="27.873507" />
    <path
       transform="matrix(0.59785207,0,0,0.59785207,460.99353,-195.17059)"
       d="m 212.85714,533.79077 a 34.285713,34.285713 0 1 1 -68.57143,0 34.285713,34.285713 0 1 1 68.57143,0 z"
       sodipodi:ry="34.285713"
       sodipodi:rx="34.285713"
       sodipodi:cy="533.79077"
       sodipodi:cx="178.57143"
       id="path3310"
       style="fill:#d3d7cf;fill-opacity:1;stroke:#eeeeec;stroke-width:2.65395093;stroke-miterlimit:4;stroke-opacity:1;stroke-dasharray:none"
       sodipodi:type="arc"
       inkscape:export-filename="C:\wamp\www\registra_requerimento\images\situacao_0.png"
       inkscape:export-xdpi="27.873507"
       inkscape:export-ydpi="27.873507" />
    <path
       sodipodi:type="arc"
       style="fill:#d3d7cf;fill-opacity:1;stroke:#eeeeec;stroke-width:2.65395093;stroke-miterlimit:4;stroke-opacity:1;stroke-dasharray:none"
       id="path3312"
       sodipodi:cx="178.57143"
       sodipodi:cy="533.79077"
       sodipodi:rx="34.285713"
       sodipodi:ry="34.285713"
       d="m 212.85714,533.79077 a 34.285713,34.285713 0 1 1 -68.57143,0 34.285713,34.285713 0 1 1 68.57143,0 z"
       transform="matrix(0.59785207,0,0,0.59785207,560.78706,-195.17059)"
       inkscape:export-filename="C:\wamp\www\registra_requerimento\images\situacao_0.png"
       inkscape:export-xdpi="27.873507"
       inkscape:export-ydpi="27.873507" />
    <path
       sodipodi:type="arc"
       style="fill:#d3d7cf;fill-opacity:1;stroke:#eeeeec;stroke-width:2.65395093;stroke-miterlimit:4;stroke-opacity:1;stroke-dasharray:none"
       id="path3314"
       sodipodi:cx="178.57143"
       sodipodi:cy="533.79077"
       sodipodi:rx="34.285713"
       sodipodi:ry="34.285713"
       d="m 212.85714,533.79077 a 34.285713,34.285713 0 1 1 -68.57143,0 34.285713,34.285713 0 1 1 68.57143,0 z"
       transform="matrix(0.59785207,0,0,0.59785207,510.89031,-195.17059)"
       inkscape:export-filename="C:\wamp\www\registra_requerimento\images\situacao_0.png"
       inkscape:export-xdpi="27.873507"
       inkscape:export-ydpi="27.873507" />
  </g>
</svg>
