<?xml version="1.0" encoding="UTF-8" standalone="no"?>
<!-- Created with Inkscape (http://www.inkscape.org/) -->

<svg
   xmlns:dc="http://purl.org/dc/elements/1.1/"
   xmlns:cc="http://creativecommons.org/ns#"
   xmlns:rdf="http://www.w3.org/1999/02/22-rdf-syntax-ns#"
   xmlns:svg="http://www.w3.org/2000/svg"
   xmlns="http://www.w3.org/2000/svg"
   xmlns:xlink="http://www.w3.org/1999/xlink"
   xmlns:sodipodi="http://sodipodi.sourceforge.net/DTD/sodipodi-0.dtd"
   xmlns:inkscape="http://www.inkscape.org/namespaces/inkscape"
   width="744.09448819"
   height="1052.3622047"
   id="svg2"
   version="1.1"
   inkscape:version="0.48.2 r9819"
   sodipodi:docname="maximizar.svg">
  <defs
     id="defs4">
    <linearGradient
       id="linearGradient3784">
      <stop
         style="stop-color:#e78b03;stop-opacity:1;"
         offset="0"
         id="stop3786" />
      <stop
         style="stop-color:#fcaf3e;stop-opacity:1"
         offset="1"
         id="stop3788" />
    </linearGradient>
    <radialGradient
       inkscape:collect="always"
       xlink:href="#linearGradient3784"
       id="radialGradient3790"
       cx="35.447075"
       cy="458.48532"
       fx="35.447075"
       fy="458.48532"
       r="61.903741"
       gradientUnits="userSpaceOnUse"
       gradientTransform="matrix(0.03817939,-1.4092217,0.99963319,0.0270828,-415.01875,511.95525)" />
    <linearGradient
       inkscape:collect="always"
       xlink:href="#linearGradient3784"
       id="linearGradient3796"
       x1="45.06105"
       y1="500.04962"
       x2="46.701397"
       y2="420.16068"
       gradientUnits="userSpaceOnUse" />
  </defs>
  <sodipodi:namedview
     id="base"
     pagecolor="#ffffff"
     bordercolor="#666666"
     borderopacity="1.0"
     inkscape:pageopacity="0.0"
     inkscape:pageshadow="2"
     inkscape:zoom="0.7"
     inkscape:cx="174.60399"
     inkscape:cy="388.04257"
     inkscape:document-units="px"
     inkscape:current-layer="layer1"
     showgrid="false"
     inkscape:window-width="1920"
     inkscape:window-height="1028"
     inkscape:window-x="-32000"
     inkscape:window-y="-32000"
     inkscape:window-maximized="1" />
  <metadata
     id="metadata7">
    <rdf:RDF>
      <cc:Work
         rdf:about="">
        <dc:format>image/svg+xml</dc:format>
        <dc:type
           rdf:resource="http://purl.org/dc/dcmitype/StillImage" />
        <dc:title></dc:title>
      </cc:Work>
    </rdf:RDF>
  </metadata>
  <g
     inkscape:label="Layer 1"
     inkscape:groupmode="layer"
     id="layer1">
    <path
       id="path3837"
       d="m 365.15625,445.78125 -99.1875,114.65625 70.59375,0 0,102.78125 57.15625,0 0,-102.78125 70.59375,0 -99.15625,-114.65625 z"
       style="fill:#204a87;fill-opacity:1;stroke:#729fcf;stroke-width:0.67983222"
       inkscape:connector-curvature="0"
       inkscape:export-filename="C:\wamp\www\registra_requerimento\images\resource\path3820.png"
       inkscape:export-xdpi="4.6035805"
       inkscape:export-ydpi="4.6035805" />
    <path
       id="path3839"
       d="m 336.5625,805.78125 0,102.78125 -70.59375,0 99.1875,114.6563 99.15625,-114.6563 -70.59375,0 0,-102.78125 -57.15625,0 z"
       style="fill:#204a87;fill-opacity:1;stroke:#729fcf;stroke-width:0.67983222"
       inkscape:connector-curvature="0"
       inkscape:export-filename="C:\wamp\www\registra_requerimento\images\resource\path3820.png"
       inkscape:export-xdpi="4.6035805"
       inkscape:export-ydpi="4.6035805" />
    <path
       id="path3841"
       d="M 191.0625,635.3125 76.4375,734.5 l 114.625,99.1875 0,-70.625 102.8125,0 0,-57.125 -102.8125,0 0,-70.625 z"
       style="fill:#204a87;fill-opacity:1;stroke:#729fcf;stroke-width:0.67983222"
       inkscape:connector-curvature="0"
       inkscape:export-filename="C:\wamp\www\registra_requerimento\images\resource\path3820.png"
       inkscape:export-xdpi="4.6035805"
       inkscape:export-ydpi="4.6035805" />
    <path
       id="path3843"
       d="m 539.21875,635.3125 0,70.625 -102.78125,0 0,57.125 102.78125,0 0,70.625 L 653.875,734.5 539.21875,635.3125 z"
       style="fill:#204a87;fill-opacity:1;stroke:#729fcf;stroke-width:0.67983222"
       inkscape:connector-curvature="0"
       inkscape:export-filename="C:\wamp\www\registra_requerimento\images\resource\path3820.png"
       inkscape:export-xdpi="4.6035805"
       inkscape:export-ydpi="4.6035805" />
    <g
       id="g3778"
       inkscape:export-filename="C:\wamp\www\registra_requerimento\images\resource\max.png"
       inkscape:export-xdpi="10.737323"
       inkscape:export-ydpi="10.737323"
       transform="translate(62.857143,-274.28571)">
      <path
         id="path3768"
         d="m 422.65625,614.03125 -19.28125,-72 -16,16 -21.71875,-21.75 -21.21875,21.21875 21.71875,21.71875 -15.5,15.5 72,19.3125 z"
         style="fill:#8ae234;fill-opacity:1;stroke:#4e9a06;stroke-width:1.20000005;stroke-linecap:round;stroke-linejoin:round;stroke-miterlimit:4;stroke-opacity:1;stroke-dasharray:none"
         inkscape:connector-curvature="0" />
      <path
         inkscape:connector-curvature="0"
         style="fill:#8ae234;fill-opacity:1;stroke:#4e9a06;stroke-width:1.20000005;stroke-linecap:round;stroke-linejoin:round;stroke-miterlimit:4;stroke-opacity:1;stroke-dasharray:none"
         d="m 172.4375,614.03125 19.28125,-72 16,16 21.71875,-21.75 21.21875,21.21875 -21.71875,21.71875 15.5,15.5 -72,19.3125 z"
         id="path3770" />
      <path
         inkscape:connector-curvature="0"
         style="fill:#8ae234;fill-opacity:1;stroke:#4e9a06;stroke-width:1.20000005;stroke-linecap:round;stroke-linejoin:round;stroke-miterlimit:4;stroke-opacity:1;stroke-dasharray:none"
         d="m 422.65625,362.28125 -19.28125,72 -16,-16 -21.71875,21.75 -21.21875,-21.21875 21.71875,-21.71875 -15.5,-15.5 72,-19.3125 z"
         id="path3766" />
      <path
         inkscape:connector-curvature="0"
         id="rect3763"
         d="m 172.4375,362.28125 19.28125,72 16,-16 21.71875,21.75 21.21875,-21.21875 -21.71875,-21.71875 15.5,-15.5 -72,-19.3125 z"
         style="fill:#8ae234;fill-opacity:1;stroke:#4e9a06;stroke-width:1.20000005;stroke-linecap:round;stroke-linejoin:round;stroke-miterlimit:4;stroke-opacity:1;stroke-dasharray:none" />
    </g>
    <path
       sodipodi:type="star"
       style="fill:url(#radialGradient3790);fill-opacity:1;stroke:#4e9a06;stroke-width:1.20000005;stroke-linecap:round;stroke-linejoin:round;stroke-miterlimit:4;stroke-opacity:1;stroke-dasharray:none"
       id="path3774"
       sodipodi:sides="4"
       sodipodi:cx="43.941635"
       sodipodi:cy="445.76559"
       sodipodi:r1="77.591583"
       sodipodi:r2="13.75116"
       sodipodi:arg1="0.79920718"
       sodipodi:arg2="1.5846053"
       inkscape:flatsided="true"
       inkscape:rounded="0.11"
       inkscape:randomized="0"
       d="m 98.044324,501.38351 c -8.652118,8.41641 -101.3042043,7.13689 -109.720608,-1.51523 -8.416403,-8.65211 -7.136887,-101.3042 1.51523,-109.7206 8.6521181,-8.41641 101.304205,-7.13689 109.720608,1.51523 8.416406,8.65211 7.136886,101.3042 -1.51523,109.7206 z"
       inkscape:transform-center-x="4.7204665"
       inkscape:transform-center-y="-4.171726"
       transform="matrix(1.2501418,-0.0165002,0.0165002,1.2501418,298.21326,-342.58823)"
       inkscape:export-filename="C:\wamp\www\registra_requerimento\images\resource\max.png"
       inkscape:export-xdpi="10.737323"
       inkscape:export-ydpi="10.737323" />
    <path
       transform="matrix(1.2190839,-0.01609028,0.01609028,1.2190839,299.878,-328.65806)"
       inkscape:transform-center-y="-4.0680877"
       inkscape:transform-center-x="4.6031896"
       d="m 98.044324,501.38351 c -8.652118,8.41641 -101.3042043,7.13689 -109.720608,-1.51523 -8.416403,-8.65211 -7.136887,-101.3042 1.51523,-109.7206 8.6521181,-8.41641 101.304205,-7.13689 109.720608,1.51523 8.416406,8.65211 7.136886,101.3042 -1.51523,109.7206 z"
       inkscape:randomized="0"
       inkscape:rounded="0.11"
       inkscape:flatsided="true"
       sodipodi:arg2="1.5846053"
       sodipodi:arg1="0.79920718"
       sodipodi:r2="13.75116"
       sodipodi:r1="77.591583"
       sodipodi:cy="445.76559"
       sodipodi:cx="43.941635"
       sodipodi:sides="4"
       id="path3792"
       style="fill:url(#linearGradient3796);fill-opacity:1;stroke:none"
       sodipodi:type="star"
       inkscape:export-filename="C:\wamp\www\registra_requerimento\images\resource\max.png"
       inkscape:export-xdpi="10.737323"
       inkscape:export-ydpi="10.737323" />
    <path
       style="fill:#729fcf;fill-opacity:1;stroke:#729fcf;stroke-width:0.67983221999999999"
       d="M 357.15625 437.78125 L 257.96875 552.4375 L 328.5625 552.4375 L 328.5625 655.21875 L 385.71875 655.21875 L 385.71875 552.4375 L 456.3125 552.4375 L 357.15625 437.78125 z "
       id="path3798"
       inkscape:export-filename="C:\wamp\www\registra_requerimento\images\resource\path3820.png"
       inkscape:export-xdpi="4.6035805"
       inkscape:export-ydpi="4.6035805" />
    <path
       style="fill:#729fcf;fill-opacity:1;stroke:#729fcf;stroke-width:0.67983221999999999"
       d="M 328.5625 797.78125 L 328.5625 900.5625 L 257.96875 900.5625 L 357.15625 1015.2188 L 456.3125 900.5625 L 385.71875 900.5625 L 385.71875 797.78125 L 328.5625 797.78125 z "
       id="path3808"
       inkscape:export-filename="C:\wamp\www\registra_requerimento\images\resource\path3820.png"
       inkscape:export-xdpi="4.6035805"
       inkscape:export-ydpi="4.6035805" />
    <path
       style="fill:#729fcf;fill-opacity:1;stroke:#729fcf;stroke-width:0.67983221999999999"
       d="M 183.0625 627.3125 L 68.4375 726.5 L 183.0625 825.6875 L 183.0625 755.0625 L 285.875 755.0625 L 285.875 697.9375 L 183.0625 697.9375 L 183.0625 627.3125 z "
       id="path3814"
       inkscape:export-filename="C:\wamp\www\registra_requerimento\images\resource\path3820.png"
       inkscape:export-xdpi="4.6035805"
       inkscape:export-ydpi="4.6035805" />
    <path
       style="fill:#729fcf;fill-opacity:1;stroke:#729fcf;stroke-width:0.67983221999999999"
       d="M 531.21875 627.3125 L 531.21875 697.9375 L 428.4375 697.9375 L 428.4375 755.0625 L 531.21875 755.0625 L 531.21875 825.6875 L 645.875 726.5 L 531.21875 627.3125 z "
       id="path3820"
       inkscape:export-xdpi="4.6035805"
       inkscape:export-ydpi="4.6035805" />
    <rect
       style="fill:#ffffff;fill-opacity:1;stroke:none"
       id="rect3845"
       width="785.71429"
       height="151.42857"
       x="-720"
       y="325.21933"
       inkscape:export-filename="C:\wamp\www\registra_requerimento\images\resource\fill.png"
       inkscape:export-xdpi="17.830194"
       inkscape:export-ydpi="17.830194" />
  </g>
</svg>
